<?xml version="1.0" encoding="utf-8"?>
<!-- Generator: Adobe Illustrator 22.0.1, SVG Export Plug-In . SVG Version: 6.00 Build 0)  -->
<svg version="1.1" id="Layer_1" xmlns="http://www.w3.org/2000/svg" xmlns:xlink="http://www.w3.org/1999/xlink" x="0px" y="0px"
	 viewBox="0 0 512 512" style="enable-background:new 0 0 512 512;" xml:space="preserve">
<style type="text/css">
	.st0{fill:#FFFFFF;}
</style>
<path d="M0,0h512v512H0V0z"/>
<g>
	<path class="st0" d="M97.7,209l-0.1-5.5c0-10.4-6.8-15.5-20.5-15.5c-20.9,0-31.3,18.9-31.3,56.8c0,36.8,11.6,55.2,34.9,55.2
		c9.5,0,18.5-2.5,27.2-7.5V303c-9.8,4.7-20.9,7-33.3,7c-17.7,0-31.5-5.8-41.4-17.4c-9.9-11.6-14.9-27.7-14.9-48.3
		c0-20.8,4.8-36.8,14.5-48.3c9.7-11.4,23.3-17.1,40.9-17.1c10.6,0,21.9,1.8,34.1,5.5V209H97.7z"/>
	<path class="st0" d="M201,307h-85.1v-8c7.6,0,11.4-2.3,11.4-7l0.4-10V207l-0.4-10c0-4.6-3.8-7-11.4-7v-8h48.6v8
		c-7.6,0-11.4,2.3-11.4,7l-0.4,10V282c0,6.1,0.5,10.1,1.4,12.1c0.9,1.9,5.3,2.9,13.1,2.9h10.6l5.3-0.2c5.2,0,7.9-2.3,7.9-6.9
		l0.1-4.8l0.1-3h10V307z"/>
	<path class="st0" d="M209,307v-8c7.6,0,11.4-2.3,11.4-7l0.4-10V207l-0.4-10c0-4.6-3.8-7-11.4-7v-8h78.8v22h-8v-2.1l-0.1-5.6
		c0-4.2-3.6-6.4-10.8-6.4h-23.1v47h13.6l6.3-0.2c3.1,0,4.6-1.8,4.6-5.5v-3h8v25h-8v-3.1c0-3.6-1.5-5.4-4.6-5.4l-6.3-0.2h-13.6V282
		c0,6.8,0.4,11.4,1.2,13.6c0.8,2.2,5.1,3.4,13.1,3.4h6.2l9.4-0.3c2.8,0,4.5-0.7,5-2.2c0.5-1.5,0.7-4.8,0.7-10V284h9v23H209z"/>
	<path class="st0" d="M295.1,307v-8l2.9-0.4c2.5-0.4,4.7-3.2,6.5-8.4l2.8-7.8L339.7,179h7.9l33.9,103.5l3.5,9.4
		c1.8,4.8,4.6,7.2,8.6,7.2v8h-44v-8c6,0,9-1.2,9-3.7c0-1.7-1.2-6-3.5-13l-3.5-10.4h-32.9l-3.3,10.4c-2.2,6.9-3.3,11.3-3.3,12.9
		c0,2.4,2.4,3.7,7.3,3.7v8H295.1z M321.4,264h27.7l-14.2-42.7L321.4,264z"/>
	<path class="st0" d="M398.3,307v-8c7.6,0,11.4-2.3,11.4-7l0.4-10V207l-0.4-10c0-4.6-3.8-7-11.4-7v-8h36.8l4.9-0.1l6.6-0.3l7-0.1
		c22.7,0,34.1,10.1,34.1,30.4c0,16.4-7,27.7-20.9,33.8l17,38c4.1,9.1,8.4,14.3,13,15.6v7.7h-28.4L443,250h-8v32l0.4,10
		c0,2.6,0.4,4.4,1.2,5.2c0.8,0.8,3.6,1.4,8.4,1.9v8H398.3z M435,190V242h4c15.8,0,23.6-9.5,23.6-28.5c0-15.7-7-23.6-20.9-23.6H435z"
		/>
</g>
</svg>
