<?xml version="1.0" encoding="utf-8"?>
<!-- Generator: Adobe Illustrator 22.0.1, SVG Export Plug-In . SVG Version: 6.00 Build 0)  -->
<svg version="1.1" id="Layer_1" xmlns="http://www.w3.org/2000/svg" xmlns:xlink="http://www.w3.org/1999/xlink" x="0px" y="0px"
	 viewBox="0 0 512 512" style="enable-background:new 0 0 512 512;" xml:space="preserve">
<style type="text/css">
	.st0{fill:#330000;}
	.st1{fill:#FFFFFF;}
</style>
<path class="st0" d="M0,0h512v512H0V0z"/>
<path class="st1" d="M450.2,181.4l-70.5-97.1l-114.1-37V140l96.4,70L450.2,181.4z M358.7,152.9c-0.6,2.4-1.6,4.6-3,6.6
	c-2.8,3.9-7.1,6.4-11.9,6.9c-5,0.6-10.3-1.1-15.7-5.1c-5.5-4-8.7-8.5-9.6-13.4c-1-4.7,0.1-9.6,2.9-13.4c1.5-1.9,3.3-3.6,5.4-4.9
	c2.3-1.5,5.3-2,9-1.6c-1.6-3.2-2.2-6.9-1.7-10.4c0.5-3.6,1.9-6.9,4-9.8c3.2-4.5,8.2-7.4,13.7-8c5.8-0.7,11.7,1.1,17.8,5.6
	c6.1,4.5,9.5,9.4,10.3,15c0.8,5.4-0.5,10.9-3.8,15.2c-2.1,2.9-4.9,5.3-8.1,6.8s-6.7,1.9-10.2,1.2
	C359.1,147.2,359.4,150.3,358.7,152.9L358.7,152.9z M348,144.7c0.3,2.2-0.3,4.4-1.7,6.2c-3.1,3.8-8.7,4.5-12.5,1.4
	c-1.6-1.3-2.7-3.1-3.2-5.1c-0.2-2.3,0.4-4.6,1.9-6.4c1.2-1.9,3.1-3.1,5.3-3.6c2.3-0.3,4.7,0.3,6.5,1.8
	C346.3,140.3,347.6,142.3,348,144.7L348,144.7z M357.5,132.9c-5.4,0.5-10.3-3.1-11.5-8.3c-0.4-2.5,0.5-5.1,2.5-7.9
	c1.5-2.4,3.9-4.1,6.7-4.8c5.4-0.5,10.4,3.1,11.5,8.4c0.2,2.8-0.7,5.6-2.5,7.8C362.2,130.9,360,132.5,357.5,132.9L357.5,132.9z
	 M246.6,140V47.3l-114.1,37L62,181.4l88.2,28.6L246.6,140z M133.9,118.2l37.9-26.5c2.6,3.8,4.3,8.1,5.1,12.7
	c1,4.8,0.1,11.2-2.8,19.4c-1.8,4.7-3.3,9.6-4.3,14.5c-0.7,3.6,0.1,7.3,2.2,10.3c1.4,2.2,3.5,3.8,6,4.5c2.5,0.6,5.1,0,7.2-1.6
	c3.3-2.3,4.7-5.1,4.2-8.4c-0.7-2.8-1.9-5.3-3.6-7.6l10.6-7.4c3.1,4.8,4.9,9.2,5.4,13.2c1,7.6-2.3,13.9-9.7,19.1
	c-5.9,4.1-11.7,5.7-17.4,4.9s-10.5-3.9-14.2-9.2c-2.8-3.9-4.2-8.7-4-13.5c0.4-4.3,1.5-8.6,3.1-12.6l2.2-6.1c1.4-3.8,2.3-6.5,2.7-8.1
	s0.5-3.2,0.4-4.8l-24.2,16.9L133.9,118.2z M198.6,333.6h115l35.5-109.4l-93-67.6l-93,67.6L198.6,333.6z M287.9,238.5
	c-1.7-1.9-4.2-3-6.8-2.8c-4,0-6.8,1.5-8.2,4.5c-1,2.7-1.5,5.5-1.5,8.3h-12.9c0.2-5.7,1.3-10.4,3.1-13.9c3.5-6.7,9.8-10.1,18.9-10.1
	c7.2,0,12.8,2,17.1,6c4.2,4,6.3,9.2,6.2,15.6c0.1,4.8-1.5,9.5-4.5,13.3c-2.8,3.3-6,6.2-9.7,8.6l-5.3,3.8c-3.3,2.4-5.6,4.1-6.8,5.1
	c-1.2,1.1-2.3,2.3-3.1,3.7h29.5v11.7h-46.2c0.1-4.6,1.1-9.1,3.1-13.3c1.9-4.5,6.4-9.3,13.4-14.3c4.2-2.8,8.2-6,11.9-9.4
	c2.6-2.6,4.1-6,4.1-9.7C290.4,243,289.5,240.5,287.9,238.5L287.9,238.5z M208.2,236.7c2.9-0.1,5.9-0.3,8.8-0.8
	c2.5-0.5,4.8-1.7,6.5-3.6c1.2-1.4,2.1-3,2.6-4.8c0.3-0.9,0.5-1.8,0.5-2.7h11.1v67.5h-13.6v-46.6h-15.9L208.2,236.7L208.2,236.7z
	 M196.5,352.7l-54.4,75l114.1,37l114.1-37l-54.4-75H196.5z M273.7,436.5c-3.8,4.8-9.6,7.2-17.5,7.2c-8.5,0-14.8-3.6-18.8-10.7
	c-3.1-5.6-4.7-12.7-4.7-21.5c-0.1-4.2,0.2-8.4,0.7-12.6c0.6-5,2.1-9.9,4.5-14.3c1.9-3.2,4.5-5.9,7.6-7.9c3.4-2.1,7.3-3.1,11.2-3
	c6.3,0,11.3,1.6,15,4.8c3.7,3.3,6,7.9,6.3,12.8h-13.2c-0.1-1.3-0.5-2.5-1.3-3.6c-1.4-2.1-3.9-3.3-6.5-3.2c-4.3,0-7.4,2.4-9.2,7.3
	c-1.2,3.8-1.9,7.8-2.1,11.8c1.5-1.9,3.5-3.3,5.7-4.3c7.7-2.9,16.4-1,22.2,4.8c3.9,4.2,6,9.9,5.7,15.6
	C279.5,425.9,277.5,431.7,273.7,436.5L273.7,436.5z M263,411.9c1.9,2.1,2.9,5.1,2.9,9.1c0.1,3.1-0.8,6.1-2.5,8.6
	c-1.6,2.2-4.2,3.4-7,3.3c-2.9,0.1-5.6-1.2-7.5-3.4c-2-2.5-3-5.7-2.9-8.9c0-4.5,1.3-7.8,3.9-9.8c1.7-1.3,3.8-2.1,6-2
	C258.7,408.7,261.3,409.8,263,411.9L263,411.9z M382.2,299.7L410,308l-4.8,16.2L382.2,299.7z M367.8,228.1L331,341.4l54.5,75
	l70.5-97V199.5L367.8,228.1z M433.9,315.1l-13.9-4.2l-7.7,25.6l-11.1-3.3L369,297.7l4.3-14.3l40.4,12.1l2.2-7.3l10,3l-2.2,7.3
	l13.9,4.2L433.9,315.1z M144.2,228.1L56,199.5v119.9l70.5,97l54.5-75L144.2,228.1z M72.5,286.2l44.4-14l-4.8-15.1l8.6-2.7
	c0.9,2.8,2.1,5.5,3.4,8.1c1.2,2.2,3.1,4,5.3,5.1c1.7,0.8,3.5,1.1,5.4,1c0.9,0,1.8-0.1,2.7-0.3l3.3,10.6l-64.4,20.3L72.5,286.2z
	 M91,344.8l-4.1-13l44.4-14l-4.8-15.1l8.6-2.7c0.9,2.8,2.1,5.5,3.4,8.1c1.2,2.2,3.1,4,5.3,5.1c1.7,0.8,3.5,1.1,5.4,1
	c0.9,0,1.8-0.1,2.7-0.3l3.3,10.6L91,344.8z"/>
</svg>
