<?xml version="1.0" encoding="utf-8"?>
<!-- Generator: Adobe Illustrator 22.0.1, SVG Export Plug-In . SVG Version: 6.00 Build 0)  -->
<svg version="1.1" id="Layer_1" xmlns="http://www.w3.org/2000/svg" xmlns:xlink="http://www.w3.org/1999/xlink" x="0px" y="0px"
	 viewBox="0 0 512 512" style="enable-background:new 0 0 512 512;" xml:space="preserve">
<style type="text/css">
	.st0{fill:#330000;}
	.st1{fill:#FFFFFF;}
</style>
<path class="st0" d="M0,0h512v512H0V0z"/>
<path class="st1" d="M248,20.3L72.3,132.6l175.7-3.8V20.3z M264,20.3v108.5l175.7,3.8L264,20.3z M301.8,75.3
	c4.6-0.1,9.8,1.8,13.6,3.8c6.1,3.5,8.2,7.2,15.1,4.2c10.7,0.8,22.3,5.8,27.6,15.7c4.7,4.6,1.6,12.6-5.2,12.7
	c-9.7,0.1-19.7-6.1-14.6-8.3c4.6-2,14.6,0.9,10-5.6c-3.6-4.4-11.1-7.8-16.4-5.9c-1.6,6.8-9.4,4-12-0.6c-2.4-5.8-9.2-8.2-15.1-7.9
	c-6.1,2.7,1.7,8.8,5.3,9.9c7.9,2.1,0.2,7.5-4.1,5.1c-4.3-2.4-15-9.6-13.5-18.3C294.9,76.7,298.2,75.4,301.8,75.3L301.8,75.3z
	 M206.9,75.6c5.5,0.5,12.4,3.1,10.2,10c-4.3,6.9-9.8,13.1-18.1,14.8c-6.5,3.4-14.9,4.4-21.6,1.9c-3.6-2.2-13.4-9.3-14.8-3.4
	c-0.7,6.2,3,15.4-6.1,15.8l-5,2V92.3c9.8-3.9,21-4.5,30.3,1.3c8,4.2,19.4,1.5,24.3-5.8c1.3-6.5-8.2-4.6-12.2-3.3
	C191,76.2,201.6,77,206.9,75.6L206.9,75.6z M241.9,144.9L55.4,149l71.2,192.9L241.9,144.9z M270.1,144.9l115.2,197L456.6,149
	L270.1,144.9z M256,152.4L138.9,352.6h234.2L256,152.4z M378.4,170.6c3.9,0,7.9,1.2,10.9,3c13.8,8.2,21.5,26.1,22.1,43
	c0.1,5.7-1.6,13.2-6,17c-2.9,2-6,3.2-9.2,4.4c-16.8-1.2-23.9-19.2-29.7-32.6c-3.4-9.9-5.8-24.1,1.7-31.3
	C370.7,171.5,374.5,170.5,378.4,170.6L378.4,170.6z M150.8,178.3c6.5,0.3,12.9,5,14.8,11.3c2.1,4-0.6,11.4-4.9,12.1
	c-4.9,0.7-3.8-9.3-9.3-11.6c-5.9-3.7-11.5,4.3-14.2,8.7c-0.3,1-0.7,1.9-0.9,2.9c10.4-4.1,20.3,7.1,20.3,17
	c-0.3,11.7-7.8,24.8-19.7,28.1h-5.6c-12.7-0.7-18.3-15.9-14.2-26.6c4.4-15.8,10.8-33.9,27.1-40.6
	C146.4,178.6,148.6,178.2,150.8,178.3z M379.5,181.2c-7.1-0.1-4.4,10-3.3,14.5c1.5,10.1,6.5,19.8,13.1,27.3c1.7,1.4,3.7,2.1,5.8,2.7
	c6.9-1.3,4.5-12.8,3.7-16.5C394.1,198.3,391.7,185.9,379.5,181.2L379.5,181.2z M52,186v173.3l61.9-5.7L52,186z M460,186l-61.9,167.6
	l61.9,5.7V186z M342.1,186.7l28.5,63.5l-10,4.4l-20-43.4c-6,3.1-13,8.9-14.6-1.3c-1.3-4,8.5-5.1,8.1-12
	C333.8,191.1,336.3,185.8,342.1,186.7L342.1,186.7z M136.3,211c-2.3,0.2-4.5,1.4-6.1,3.1c-2.4,5.1-4.1,10.3-2.7,15.9
	c1.7,8.8,13.5,6.4,15.6-0.9c2.7-5,3.9-11.6-0.5-15.7c-1.7-1.6-3.5-2.4-5.2-2.5C136.9,211,136.6,211,136.3,211L136.3,211z
	 M453.8,244.6c3.7,0.3,5.8,6.9,4.7,11c-0.1,18.6,1.1,39.2-9.7,55.3c-1,1.3-2.3,1.9-3.7,2.6c-5.8-4.2-3-11.4,1.1-15.6
	c1,7.3,5.6-2.9,6.7-5.6c1.3-3.2,3.5-17.8-1-10.3c0.7,4-6.8,13.2-9.4,8.1c-4.9-14.4,0-30.5,7-43.4
	C451.1,245.2,452.5,244.5,453.8,244.6L453.8,244.6z M59.9,245.5c0.6,0.1,1.3,1,2.5,3.6v61.2c-7.3-7-3.6-17.4-4.5-26.4
	c-0.8-7.6,1.7-16.3-1.3-23.2c-4.6-1.7-5.8-17-3.2-12.7C57.9,252.7,58.2,245.2,59.9,245.5L59.9,245.5z M225.9,249.8
	c4.5,0.1,8.9,1.2,12.8,3.3c8.1,4.4,13.7,14.4,10.8,23.6c-2.3,9.6-10.6,16.2-19.2,20.2c-4.1,2.6-9.4,4.6-11.3,9.5
	c-1.2,3,25.4,1.6,30.3,1.6c0.5,4,1.5,10.7-3.8,11.7c-14.5-1.2-29.9-0.6-45.1-0.6c0.4-11.2,7.4-21.4,17-26.8
	c6.9-4.9,15.4-9.3,18.1-17.9c1.8-4.4-0.6-9.3-4.6-11.5c-4.2-2.9-10.9-2.3-13.2,2.7c-2,3.8-4.4,9.1-8.7,9.6c-2.9,0.4-9,0.5-7.3-4.9
	c1.5-5.6,3.4-11.6,8.3-15.2C214.5,251.4,220.2,249.7,225.9,249.8L225.9,249.8z M284.5,250.3c2.5,0,5.1,0.5,7.5,1.4
	c6.8,2.2,12,7.9,14.3,14.7c6.1,14.7,5.6,33-4.4,45.9c-4.4,4.7-10.1,9.1-16.9,9.1c-12.5-0.2-22.5-11.2-24.8-22.9
	c-3.1-13.4-1.8-28.6,6.9-39.7c3.7-5.4,10-8.2,16.4-8.4C283.8,250.3,284.1,250.3,284.5,250.3z M450.9,256.1c-1,0-2,1-2.8,3.7
	c-1.6,5.9-3.3,13.4-0.8,19.3c5.1-2,5.5-9.6,6.7-14.4C455.2,261.3,453.1,256.2,450.9,256.1L450.9,256.1z M285.1,261.7
	c-3.4-0.2-6.8,2.6-8.3,5.6c-2.3,4.1-2.1,9-2.8,13.6c-0.8,9.1-0.3,19.2,5.5,26.7l2.2,1.5c4.9,1.8,9.7-2.2,11.1-6.7
	c2-6.2,2.3-12.9,2.4-19.4c-0.2-7-1.5-14.9-6.7-20C287.3,262.1,286.2,261.7,285.1,261.7L285.1,261.7z M434,266.8V328l-4.5,6.7v-42.3
	c-4.6,7.5-9,9-6.1-0.9C429.6,284.4,428.3,274.1,434,266.8L434,266.8z M74.6,268c0,0.1,0,0.1,0.1,0.2c4.5-0.5,7.3,7.3,9.1,10.9
	c0.8,3.6,5.1,17.8,2,14.8c-0.3-0.5-0.5-0.9-0.8-1.4l1.8,3.3c-4.6-3.7-6.4-10.5-4.4-8c-1.6-3-3-6.1-4.2-9.2c-0.1,1.2-0.7,2.1-2.5,2.8
	c-1.3,3.5-1.3,7.1-0.7,10.6c0.2-1.7,1.2-2.4,3.4-0.8c7.8,12.6,12.2,29.1,7.3,43.5l-2.2,1.1c-10.4-5.8-11.4-19.4-13.4-30
	c-1.6-12.3-0.8-24.7,2.3-36.7c0.8-0.5,1.6-0.8,2.3-0.9C74.7,268.1,74.7,268,74.6,268L74.6,268z M74.7,268.2c0.1,0.4,0.2,0.8,0.4,1.2
	C75,269,74.8,268.6,74.7,268.2L74.7,268.2z M76.8,299.2c-4.1,4.6-2.3,12.8-0.4,18.4c1.1,5.5,6.9,10.1,6.1,1.5
	c-0.1-5.6,0.2-11.7-3-16.4C78.5,302.2,77.5,300.9,76.8,299.2L76.8,299.2z M143.2,368.6L256,491.7l112.8-123.2L143.2,368.6z
	 M121.8,368.9l-53.8,5l64.2,41.1c-2.6-2.7-4.9-5.7-7.1-8.8c-5.1-7-10.5-13.7-18.9-16.7c-8.7-6.4-4.2-5.3,2.9-2.5
	c-0.9-1.9-0.7-2.6,0.1-2.7c2.2-0.2,8.4,4.2,9.7,6.4l24.7,31.6l65.1,41.7L121.8,368.9z M390.2,368.9l-42.5,46.4
	c6.4-3.1,11.4-8.5,17.1-12.5c2.4-1.3,3.7-1.9,4.3-1.9c2.1,0-5.4,7.1-7.7,10.3c-9.4,9.8-16.1,23-28.7,29.1l18.9-24.5
	c-2.3,1.3-5.9,3.2-8.2,4.1l-40.3,44l74.5-47.6c5.5-6.7,1.9-5.5-5.6-0.9l-11.4,6c11.5-13.7,26.9-23.6,40.1-35.6
	c3.2-1.5,9.5-5.7,11-5.7c0.8,0,0.2,1-2.8,4.2l-12.6,16c10-7.5,0.9,3.9-4.5,5.6c-0.7,1-1.4,2-2.2,2.9l54.5-34.9L390.2,368.9z
	 M232,385.5c1.4,0,2.7,0.1,4,0.3v43.4h-13.4v-30c-5-1.4-10.4,1.7-15.3-0.3c-3.8-2.9,1-6.8,4.5-5.9c3.3-0.1,7.6,0.2,9.3-3.2
	C223.8,386.4,227.9,385.5,232,385.5L232,385.5z M265,386.3c0.5,0,1,0,1.5,0.2c3.1,0.8,6.5,0.2,9.7,0.4h25.4c1.5,3,0.8,7.8-3.3,7.9
	c-3.9,0.5-7.8-0.4-11.7,0.2c-4.7,0.1-9.8-1.8-14.2,0.4c-3.1,1.7-4.2,8.5,1,6.1c3.4-1.1,6.9-1.8,10.4-0.9c7,1.1,15,2.9,19.1,9.2
	c2.1,3.2,2.7,7.3,0.6,10.7c-3.6,6.5-11.5,8.4-18.3,9.8c-2.3,0.4-4.7,1.4-7,1.2c-7.2-0.6-15.6-1.1-20.6-7.1c-2.7-2.5-2.7-7.1,1.9-6.7
	c3.6-0.1,8.7-0.4,10.3,3.5c3.2,3.7,8.8,2.9,13.1,2c3.6-0.5,7.5-2.5,7.6-6.7c0.6-4.2-3.1-7.2-6.8-7.8c-5.8-2.4-11.6,1.4-17.4,1.8
	c-3.5,1-9.6,0.5-8.9-4.5c0.8-4.2,2.7-8.1,2.7-12.5C260.2,390.5,261.8,386.5,265,386.3L265,386.3z M398.5,391.3
	c-0.2-0.2-7,5.7-9.9,8.1l-15.8,13.1c8.6-4.4,16.5-9.6,22.3-17.4C397.7,392.5,398.6,391.4,398.5,391.3L398.5,391.3z M151.5,405.5
	c2.4,0,7.5,4.6,9.4,7.1l26.1,31.1c-7.7-2.2-13.3-7.2-17.7-13.8c-6.4-7.3-11.3-16.6-21.2-19.5c-8.9-5-5.2-6.4,2.1-2.3
	C150,406.2,150.5,405.5,151.5,405.5L151.5,405.5z"/>
</svg>
