<?xml version="1.0" encoding="utf-8"?>
<!-- Generator: Adobe Illustrator 22.0.1, SVG Export Plug-In . SVG Version: 6.00 Build 0)  -->
<svg version="1.1" id="Layer_1" xmlns="http://www.w3.org/2000/svg" xmlns:xlink="http://www.w3.org/1999/xlink" x="0px" y="0px"
	 viewBox="0 0 512 512" style="enable-background:new 0 0 512 512;" xml:space="preserve">
<style type="text/css">
	.st0{fill:#FFFFFF;stroke:#000000;stroke-miterlimit:10;}
</style>
<path d="M0,0h512v512H0V0z"/>
<g>
	<path class="st0" d="M1.2,350v-13.3l4.8-0.6c4.2-0.7,7.8-5.3,10.9-14l4.6-13.1l54.1-172.4h13.2l56.5,172.5l5.9,15.6
		c2.9,8,7.7,12,14.4,12V350H92.2v-13.3c10,0,15-2,15-6.1c0-2.8-1.9-10-5.8-21.6l-5.8-17.3H40.8l-5.5,17.4
		c-3.7,11.6-5.5,18.8-5.5,21.5c0,4.1,4.1,6.1,12.2,6.1V350H1.2z M45,278.3h46.2l-23.7-71.2L45,278.3z"/>
	<path class="st0" d="M173.2,350v-13.3c12.7,0,19-3.9,19-11.7l0.6-16.6V183.3l-0.6-16.7c0-7.7-6.3-11.6-19-11.6v-13.3h89.2
		c20.4,0,36.4,9,48.3,27c11.8,18,17.7,42.5,17.7,73.5c0,32.5-6.1,58.6-18.2,78.3C298,340.1,282,350,262,350H173.2z M234.5,154.9
		v153.4c0,12.5,0.8,20.3,2.3,23.5s5.5,4.8,11.9,4.8c23.1,0,34.6-32.1,34.6-96.3c0-57-13.5-85.5-40.5-85.5h-8.3V154.9z"/>
	<path class="st0" d="M417.2,351.7l-61.4-168.4l-6.1-15.8c-3.2-8.4-6.4-12.6-9.8-12.6v-13.3h73v13.3h-3.3c-10.7,0-16.1,1.9-16.1,5.7
		c0,2.9,2.2,10.4,6.7,22.6l38.4,104.6l36.6-104.6L479,172c2-5.1,2.9-8.9,2.9-11.2c0-3.8-2.8-5.8-8.3-5.9H463v-13.3h41.3v13.3
		c-3.3,0-8.3,9.4-14.9,28.3l-58.9,168.4h-13.3V351.7z"/>
</g>
</svg>
