<?xml version="1.0" encoding="utf-8"?>
<!-- Generator: Adobe Illustrator 22.0.1, SVG Export Plug-In . SVG Version: 6.00 Build 0)  -->
<svg version="1.1" xmlns="http://www.w3.org/2000/svg" xmlns:xlink="http://www.w3.org/1999/xlink" x="0px" y="0px"
	 viewBox="0 0 750 200" style="enable-background:new 0 0 750 200;" xml:space="preserve">
<style type="text/css">
	.st0{stroke:#000000;stroke-miterlimit:10;}
	.st1{fill:#FFFFFF;stroke:#000000;stroke-miterlimit:10;}
	.st2{fill:#330000;}
</style>
<g id="Layer_4">
	<rect x="0.5" y="77.5" class="st0" width="750" height="121"/>
</g>
<g id="Layer_3">
	<polygon class="st1" points="73.5,91.5 41.5,99.5 32.5,124.5 48.5,152.5 81.5,144.5 92.5,120.5 	"/>
	<polygon class="st1" points="43.5,152.5 26.5,149.5 14.5,156.5 6.5,170.5 8.5,187.5 18.5,198.5 37.5,201.5 51.5,192.5 56.5,180.5 
		55.5,164.5 	"/>
	<polygon class="st1" points="79.5,143.5 111.5,140.5 127.5,171.5 112.5,198.5 79.5,198.5 63.5,167.5 79.5,142.5 	"/>
	<polygon class="st1" points="98.5,138.5 98.5,85.5 152.5,89.5 152.5,141.5 	"/>
	<polygon class="st1" points="146.5,143.5 128.5,183.5 168.5,200.5 186.5,160.5 	"/>
	<polygon class="st1" points="212.5,141.5 178.5,197.5 241.5,198.5 	"/>
	<polygon class="st1" points="261.5,143.5 247.5,175.5 265.5,201.5 299.5,200.5 314.5,169.5 295.5,143.5 	"/>
	<polygon class="st1" points="318.5,155.5 318.5,198.5 363.5,198.5 361.5,154.5 	"/>
	<polygon class="st1" points="398.5,145.5 384.5,167.5 398.5,198.5 432.5,195.5 446.5,170.5 432.5,140.5 	"/>
	<polygon class="st1" points="470.5,141.5 441.5,194.5 502.5,196.5 	"/>
	<polygon class="st1" points="467.5,130.5 494.5,165.5 529.5,137.5 500.5,103.5 	"/>
	<polygon class="st1" points="524.5,149.5 512.5,156.5 505.5,170.5 506.5,187.5 516.5,197.5 534.5,201.5 549.5,192.5 555.5,178.5 
		553.5,163.5 542.5,151.5 	"/>
	<polygon class="st1" points="557.5,143.5 555.5,194.5 606.5,198.5 608.5,144.5 557.5,142.5 	"/>
	<polygon class="st1" points="597.5,83.5 580.5,112.5 595.5,141.5 627.5,143.5 645.5,113.5 630.5,84.5 	"/>
	<polygon class="st1" points="662.5,135.5 629.5,136.5 613.5,161.5 629.5,193.5 663.5,193.5 680.5,166.5 	"/>
	<polygon class="st1" points="697.5,92.5 640.5,119.5 690.5,156.5 	"/>
	<polygon class="st1" points="729.5,130.5 696.5,137.5 686.5,161.5 704.5,193.5 740.5,184.5 748.5,157.5 	"/>
</g>
<g id="Layer_1">
	<path class="st2" d="M729.8,130.9l-41.7,32.7l49.5,19.7L729.8,130.9z M725.5,131.3l-28.3,7.1l-8.7,21.9L725.5,131.3z M732.7,134.1
		l6.9,46.6l8.7-21.9L732.7,134.1z M709.3,139.3l-1.2,3l-1.7,0.9l0.9-2.4c-0.6,0.3-1.1,0.6-1.7,0.9c0.5,0.2,0,0.9-0.1,1.2
		c-0.8,1.2-2.1,2-3.2,2.7c-0.4,0.2-0.8,0.5-1.2,0.7c-0.8,0.2-1.4,0.1-1.4-0.8c0.5-1.1,1.4-1.9,2.3-2.5l1.2-0.8
		c-0.1,0.3-0.3,0.7-0.4,1c-0.6,0.5-1.5,0.9-1.6,1.7c1,0.6,2.3-0.8,2.9-1.5c0.3-0.3,0.6-0.6,0.1-0.8l0.4-1L709.3,139.3z M738.7,151.2
		l3.2,10l-0.4,1l-2.2-6.7l-0.5,1.2l-0.4-1.3c0.2-0.6,0.3-1.2,0.3-1.8c-0.1-0.5-0.2-1-0.4-1.5L738.7,151.2z M720.6,154.1
		c1.2,0.5,2,1,2.4,1.7c0.4,0.7,0.5,1.4,0.2,2.2c-0.2,0.5-0.5,0.9-1,1.2c-0.4,0.2-1,0.3-1.6,0.3c0.6,0.4,1,0.9,1.1,1.5
		c0.2,0.5,0.1,1.1-0.1,1.7c-0.4,1-1,1.5-1.8,1.8c-0.8,0.2-1.9,0.1-3.1-0.4c-1.2-0.5-2.1-1.1-2.5-1.9c-0.4-0.7-0.5-1.6-0.1-2.5
		c0.2-0.6,0.6-1.1,1.1-1.3c0.5-0.3,1.1-0.4,1.8-0.3c-0.5-0.4-0.8-0.9-1-1.3c-0.2-0.5-0.1-1,0.1-1.5c0.3-0.8,0.9-1.3,1.6-1.5
		C718.4,153.5,719.4,153.6,720.6,154.1L720.6,154.1z M719.9,155.7c-0.4-0.2-0.7-0.2-1-0.1c-0.3,0.1-0.5,0.4-0.7,0.7
		c-0.2,0.4-0.2,0.7,0,1c0.1,0.3,0.4,0.5,0.8,0.7c0.4,0.2,0.7,0.2,1,0c0.3-0.1,0.5-0.4,0.7-0.8c0.2-0.4,0.2-0.7,0-1
		C720.6,156,720.3,155.8,719.9,155.7L719.9,155.7z M718.4,159.6c-0.5-0.2-0.9-0.2-1.2,0c-0.3,0.2-0.6,0.5-0.8,0.9
		c-0.2,0.5-0.2,0.9-0.1,1.2c0.1,0.3,0.5,0.6,0.9,0.8c0.5,0.2,0.9,0.2,1.2,0c0.3-0.2,0.6-0.5,0.8-0.9c0.2-0.5,0.2-0.9,0.1-1.2
		C719.1,160,718.8,159.8,718.4,159.6L718.4,159.6z M688.7,166.5l16.5,26.1l29.9-7.5L688.7,166.5z M706.8,177.4l7.6,3l-0.3,0.7
		c-2.3,0-3.7,0.6-5.3,2l-2.2-0.9c1.8-1.5,3-1.7,5.1-2.1l-5.2-2.1L706.8,177.4z"/>
	<path class="st2" d="M662.9,135.7l-29.9,0.6l21.8,12.7L662.9,135.7z M664.8,136.9l-8.1,13.3l21.2,13.6L664.8,136.9z M665.3,146.5
		c0.6,0.3,1.1,0.9,1.4,1.5c0.5,0.9,0.5,1.5,1.5,1.6c1.2,0.9,2.3,2.4,2.2,4c0.2,0.9-0.8,1.7-1.6,1.2c-1.2-0.7-2-2.2-1.2-2.1
		c0.7,0.1,1.7,1.2,1.6,0.1c-0.1-0.8-0.8-1.8-1.6-1.9c-0.7,0.7-1.4-0.2-1.4-1c0.1-0.9-0.5-1.7-1.3-2.1c-0.9-0.1-0.5,1.2-0.1,1.6
		c0.8,0.9-0.5,0.9-0.9,0.3c-0.3-0.6-1.1-2.3-0.3-3.3C664.4,146.1,664.9,146.2,665.3,146.5L665.3,146.5z M653.7,139.4
		c0.6,0.5,1.3,1.3,0.5,2c-1,0.5-2.2,0.9-3.3,0.5c-1-0.1-2.1-0.6-2.8-1.4c-0.3-0.5-0.9-2.1-1.6-1.5c-0.5,0.7-0.8,2.1-1.9,1.5
		l-0.8-0.1l1.8-3c1.5,0.3,2.9,1,3.6,2.4c0.7,1.1,2.3,1.6,3.4,1.1c0.6-0.7-0.7-1.2-1.2-1.3C651.7,138.3,653,139.2,653.7,139.4
		L653.7,139.4z M652.8,150.5l-23.1-13.4L624,166L652.8,150.5z M656.3,152.6l-0.6,32.7l23.1-18.3L656.3,152.6z M654,152.5l-29.3,15.7
		l28.6,17.5L654,152.5z M667.6,163.8c0.5,0.3,0.9,0.7,1.1,1.2c1.1,2,0.7,4.8-0.5,6.9c-0.4,0.7-1.2,1.5-2,1.6c-0.5,0-1-0.1-1.5-0.1
		c-2-1.4-1.5-4.1-1.2-6.2c0.3-1.5,1.1-3.4,2.6-3.7C666.6,163.4,667.1,163.5,667.6,163.8L667.6,163.8z M639.2,147.8
		c0.8,0.5,1.2,1.6,1,2.5c0,0.6-0.9,1.4-1.5,1.1c-0.7-0.3,0.2-1.4-0.3-2.1c-0.4-0.9-1.7-0.3-2.4,0c-0.1,0.1-0.2,0.2-0.3,0.3
		c1.6,0.3,2,2.4,1.2,3.6c-0.9,1.4-2.8,2.4-4.5,2l-0.7-0.4c-1.5-1-1.1-3.3,0.3-4.3c1.7-1.6,3.9-3.3,6.4-2.9
		C638.6,147.5,638.9,147.6,639.2,147.8z M666.9,165.2c-0.9-0.5-1.3,0.9-1.5,1.5c-0.6,1.4-0.7,2.9-0.4,4.3c0.1,0.3,0.3,0.5,0.5,0.8
		c0.9,0.4,1.5-1.2,1.7-1.7C667.4,168.4,668.1,166.7,666.9,165.2L666.9,165.2z M626.5,141.3l-12.9,21.2l8,3.9L626.5,141.3z
		 M676.4,171.8l-20.1,15.9l7.1,5.3L676.4,171.8z M662,163.1l-1.3,9.9l-1.6-0.2l0.8-6.8c-1-0.1-2.3,0.1-1.7-1.2
		c0.1-0.6,1.4,0,1.9-0.9C660.6,163,661.3,162.6,662,163.1L662,163.1z M635,150.7c-0.3-0.2-0.6-0.2-1-0.1c-0.7,0.4-1.3,0.9-1.5,1.7
		c-0.5,1.2,1.2,1.8,2,1.1c0.7-0.4,1.3-1.1,1.1-2c-0.1-0.3-0.3-0.6-0.5-0.7C635,150.7,635,150.7,635,150.7L635,150.7z M671.3,178.5
		c0.4,0.3,0.2,1.3-0.2,1.7c-1.4,2.3-2.8,4.9-5.3,6c-0.2,0.1-0.4,0.1-0.6,0c-0.4-0.9,0.5-1.6,1.3-1.8c-0.4,1,0.9,0.1,1.2-0.2
		c0.4-0.3,1.8-1.9,0.6-1.3c-0.2,0.5-1.8,1.1-1.8,0.3c0.5-2.1,2.3-3.7,4.1-4.8C670.9,178.4,671.1,178.4,671.3,178.5L671.3,178.5z
		 M623,149.2c0.1,0.1,0.1,0.2,0,0.6l-4.6,7.5c-0.4-1.4,0.9-2.4,1.4-3.6c0.5-1,1.4-1.9,1.6-2.9c-0.4-0.6,0.6-2.5,0.6-1.8
		C622.3,149.9,622.8,149,623,149.2L623,149.2z M643,162.1c0.5,0.3,1,0.8,1.3,1.4c0.7,1.1,0.6,2.8-0.4,3.7c-1,1-2.5,1.2-3.9,1
		c-0.7,0-1.5-0.1-2.1,0.3c-0.4,0.3,3,2.1,3.6,2.5c-0.2,0.5-0.6,1.4-1.3,1.1c-1.7-1.2-3.6-2.3-5.5-3.4c0.9-1.3,2.5-2.1,4.1-2
		c1.2-0.1,2.6,0,3.6-0.8c0.5-0.4,0.6-1.2,0.3-1.7c-0.3-0.7-1.2-1.1-1.8-0.7c-0.5,0.3-1.2,0.8-1.8,0.5c-0.4-0.2-1.1-0.6-0.5-1.1
		c0.6-0.6,1.3-1.2,2.1-1.2C641.5,161.5,642.3,161.7,643,162.1L643,162.1z M650.2,166.6c0.3,0.2,0.6,0.4,0.8,0.7
		c0.7,0.8,0.9,1.9,0.7,2.9c-0.3,2.3-1.8,4.5-4,5.3c-0.9,0.2-1.9,0.4-2.8-0.2c-1.5-1-1.9-3-1.3-4.7c0.6-1.9,1.9-3.6,3.8-4.3
		c0.9-0.4,1.8-0.3,2.6,0.2C650.1,166.5,650.1,166.6,650.2,166.6z M670.1,179.7c-0.1-0.1-0.3,0-0.6,0.2c-0.6,0.6-1.4,1.4-1.5,2.3
		c0.8,0.1,1.4-0.8,1.9-1.3C670.2,180.7,670.3,179.9,670.1,179.7L670.1,179.7z M649.4,168c-0.4-0.3-1-0.2-1.4,0.1
		c-0.6,0.3-0.9,1-1.4,1.5c-0.8,1.1-1.5,2.3-1.3,3.7l0.2,0.3c0.5,0.6,1.3,0.5,1.9,0c0.7-0.6,1.2-1.4,1.7-2.2c0.5-0.9,0.9-1.9,0.7-3
		C649.6,168.2,649.5,168.1,649.4,168L649.4,168z M667.2,179.8l-4.6,7.5l-1,0.5l3.2-5.2c-1.1,0.6-1.8,0.4-0.7-0.6
		C665.4,181.6,666,180.2,667.2,179.8L667.2,179.8z M623.2,153.1C623.2,153.1,623.2,153.1,623.2,153.1c0.6,0.3,0.3,1.5,0.3,2
		c-0.2,0.5-0.7,2.6-0.9,2c0-0.1,0-0.2,0-0.2l0,0.5c-0.3-0.8,0-1.8,0.1-1.3c0-0.5,0.1-1,0.2-1.4c-0.1,0.1-0.2,0.2-0.5,0.2
		c-0.4,0.3-0.7,0.8-0.9,1.3c0.1-0.2,0.3-0.2,0.5,0.2c0,2.1-0.7,4.5-2.4,5.9l-0.4,0c-0.8-1.5,0.1-3.2,0.6-4.7c0.7-1.6,1.7-3.1,3-4.3
		C622.9,153,623.1,153,623.2,153.1C623.2,153.1,623.2,153.1,623.2,153.1L623.2,153.1z M623.2,153.1c0,0.1,0,0.1,0,0.2
		C623.1,153.2,623.1,153.1,623.2,153.1L623.2,153.1z M621.1,157c-0.8,0.3-1.2,1.4-1.4,2.2c-0.3,0.8,0.1,1.8,0.6,0.6
		c0.4-0.7,0.9-1.4,0.9-2.2C621.1,157.5,621.1,157.3,621.1,157L621.1,157z M624,170.5l4.6,23.5l23-6.6L624,170.5z M621.4,168.9
		l-7-3.4l4.8,9.8c-0.1-0.5-0.2-1.1-0.2-1.6c-0.1-1.2-0.3-2.5-1.1-3.5c-0.6-1.4-0.1-1,0.5-0.1c0-0.3,0.1-0.4,0.2-0.3
		c0.3,0.1,0.7,1.1,0.7,1.5l0.7,5.7l4.9,10L621.4,168.9z M654.2,189l-8.7,2.5c1,0.1,2-0.2,3-0.3c0.4,0,0.6,0,0.7,0.1
		c0.3,0.2-1.2,0.5-1.7,0.7c-1.9,0.5-3.7,1.6-5.7,1.4l4.1-1.6c-0.4,0-1-0.1-1.3-0.1l-8.2,2.4l12.7-0.3c1.2-0.4,0.6-0.5-0.6-0.5
		l-1.8-0.1c2.4-0.8,5-0.9,7.6-1.4c0.5,0.1,1.6,0,1.8,0.1c0.1,0.1-0.1,0.1-0.7,0.3l-2.7,1c1.8-0.2-0.2,0.5-1,0.3
		c-0.2,0.1-0.3,0.1-0.5,0.2l9.3-0.2L654.2,189z M633.6,179.2c0.2,0.1,0.3,0.2,0.5,0.3l-3.2,5.3l-1.6-1l2.2-3.7
		c-0.5-0.5-1.4-0.6-1.9-1.2c-0.2-0.6,0.6-0.8,1-0.4c0.4,0.2,0.9,0.6,1.4,0.3C632.6,178.7,633.1,178.9,633.6,179.2L633.6,179.2z
		 M637.6,181.8c0.1,0,0.1,0.1,0.2,0.1c0.3,0.3,0.8,0.5,1.2,0.8l3.1,1.9c0,0.5-0.5,1-1,0.7c-0.5-0.2-0.9-0.6-1.4-0.8
		c-0.6-0.3-1.1-0.9-1.8-1c-0.5,0-1.1,0.7-0.3,0.8c0.5,0.1,1,0.3,1.3,0.7c0.8,0.7,1.6,1.5,1.7,2.6c0,0.5-0.2,1.1-0.7,1.4
		c-0.9,0.5-2,0.2-3-0.2c-0.3-0.1-0.7-0.2-1-0.4c-0.8-0.6-1.8-1.3-2-2.4c-0.1-0.5,0.2-1.1,0.7-0.7c0.4,0.2,1.1,0.6,1,1.2
		c0.1,0.7,0.9,1,1.5,1.2c0.5,0.2,1.1,0.3,1.4-0.2c0.4-0.5,0.2-1.1-0.3-1.5c-0.5-0.7-1.5-0.7-2.3-1.1c-0.5-0.1-1.2-0.7-0.8-1.2
		c0.4-0.5,0.9-0.8,1.3-1.3C636.7,181.9,637.2,181.5,637.6,181.8L637.6,181.8z M653.6,192.3c0,0-1.3,0.2-1.8,0.2l-2.9,0.4
		c1.4,0.1,2.7,0.1,4-0.5C653.4,192.4,653.6,192.4,653.6,192.3L653.6,192.3z M622.3,175.6c0.3,0.2,0.6,1.1,0.6,1.6l0.9,5.8
		c-0.8-0.8-1.1-1.9-1.1-3c-0.2-1.4-0.1-2.9-1.1-4c-0.7-1.3-0.2-1.2,0.4-0.1C622.1,175.6,622.2,175.6,622.3,175.6L622.3,175.6z"/>
	<path class="st2" d="M683.9,107.3l4.3-2l-2.4,3.4L683.9,107.3z M692,157.5l-53.2-37.3l58.9-27.4L692,157.5z M655.1,122.3l6.6,0.7
		l0.2-1.9l-9.6-1l-0.2,1.6c0.1,0,0.3,0.1,0.4,0.1c0.2,0.1,0.5,0.2,0.6,0.4c0.2,0.3,0.4,0.6,0.4,1c0,0.4,0,0.8,0,1.3l1.3,0.1
		L655.1,122.3z M688.3,110.4l-0.9-0.6l3.4-4.9l-1.7-1.2l-6.2,2.8l-0.9,1.4l3.1,2.2l-1.2,1.7l1.5,1.1l1.2-1.7l0.9,0.6L688.3,110.4
		L688.3,110.4z M686.3,145.5c1.2-0.5,1.8-1.4,1.8-2.5c0-0.6-0.1-1.2-0.4-2l-1.7,0.8c0.2,0.4,0.3,0.8,0.3,1.2c0,0.5-0.3,0.8-0.8,1.1
		c-0.3,0.2-0.7,0.2-1,0c-0.3-0.2-0.6-0.4-0.7-0.8c-0.2-0.5-0.2-1-0.1-1.5c0.3-0.7,0.6-1.3,1-1.9c0.6-1.1,0.9-2,0.9-2.7
		c0-0.7-0.1-1.3-0.4-1.9l-6,2.8l0.7,1.5l3.8-1.8c0,0.2-0.1,0.5-0.2,0.7c-0.1,0.2-0.3,0.6-0.6,1.1l-0.5,0.8c-0.3,0.5-0.6,1.1-0.7,1.7
		c-0.2,0.7-0.1,1.4,0.2,2c0.4,0.8,1,1.4,1.8,1.6C684.6,146,685.4,145.9,686.3,145.5L686.3,145.5z"/>
	<path class="st2" d="M596.1,157l-7.4,17.8l19.8,21.4l1.1-48.5l-12.5,6.8L596.1,157z M606.3,171.1l0.9,2.4l-6.7,4.2l-0.8-2
		c0.2-0.9,0.3-1.9,0.4-2.8c0.1-1.3,0.1-2.6,0.1-3.8c-0.1-1.2-0.2-2.3-0.5-3.5c-0.2-1.1-0.5-2.1-0.8-3.1l1.9-1.2
		c0.9,2.4,1.3,5.2,1.2,8.5c-0.1,2-0.2,3.5-0.4,4.4L606.3,171.1z M565.6,183.5l-7.6,11.7l48.2,3.1l-19.8-21.5l-18.4,5.9L565.6,183.5z
		 M573.3,187.4c0.8-1.1,2.2-1.8,3.6-1.8c1,0,1.9,0.1,2.8,0.5l-1.2,1.7c-0.5-0.2-0.9-0.3-1.4-0.3c-0.8,0-1.3,0.2-1.7,0.8l0,0.1
		c-0.2,0.3-0.3,0.7-0.1,1.1c0.2,0.4,0.6,0.7,1.2,0.9c0.9,0.3,1.6,0.3,2.2-0.1c0.4-0.3,0.7-0.6,1-0.9l0.2-0.2l1.8,0.6
		c-0.4,0.6-0.6,1-0.6,1.3c0,0.5,0.3,0.8,1.1,1.1c0.5,0.2,1,0.2,1.4,0.1c0.4-0.1,0.8-0.3,1-0.6l0-0.1c0.3-0.4,0.3-0.8,0.1-1.1
		c-0.2-0.3-0.7-0.6-1.3-0.8l1.2-1.6c0.6,0.2,1.2,0.5,1.7,0.9c0.4,0.3,0.7,0.7,0.9,1.2c0.1,0.3,0.2,0.7,0.1,1.1
		c-0.1,0.5-0.3,0.9-0.6,1.2l-0.1,0.2c-0.6,0.8-1.4,1.3-2.3,1.6c-1,0.3-2.2,0.3-3.2-0.1c-0.8-0.3-1.3-0.7-1.6-1.1
		c-0.2-0.2-0.3-0.5-0.2-0.9l0,0c-0.1,0.2-0.5,0.3-1.1,0.5c-1,0.2-2,0.2-3-0.2c-1.1-0.4-1.9-1-2.4-1.8c-0.5-0.8-0.3-1.7,0.4-2.8
		L573.3,187.4z M555,194.2l0.2-25.3c0.1-0.1,0.1-0.1,0.2-0.2l0,0c0.3-0.2,0.5-0.2,0.7,0.1c0.3,0.4,0.4,0.8,0.5,1.3
		c0.1,0.8,0.1,1.5,0,2.3c-0.1,0.5-0.3,1.4-0.7,2.7c-0.5,1.5-0.7,2.8-0.7,3.8c0,1,0,2,0.2,2.9l4.3-3.1l-0.4-2.4l-2.7,2
		c0-0.3,0.1-0.6,0.1-1c0.1-0.3,0.2-0.8,0.4-1.5l0.3-1.1c0.3-0.8,0.4-1.6,0.6-2.4c0.1-1,0.1-2-0.1-3c-0.2-1.3-0.6-2.3-1.2-2.8
		c-0.4-0.4-0.9-0.5-1.5-0.3l0.2-18.6l7.4,32l0.4,1.8L555,194.2z M590.3,146.2c-0.7-0.2-1.1-0.3-1.4-0.6c-0.2-0.2-0.2-0.5,0-0.8
		l0.1-0.1c0.3-0.3,0.7-0.4,1.1-0.5c0.6-0.1,1.2,0,1.8,0.1c0.7,0.1,1.1,0.3,1.3,0.6c0.2,0.2,0.2,0.5,0,0.8l-0.1,0.1
		c-0.3,0.3-0.7,0.4-1.1,0.5C591.4,146.4,590.8,146.4,590.3,146.2L590.3,146.2z M562.2,141.5l19.5,1.4l-0.1,0.1c0,0-0.1,0.1-0.2,0.2
		c-0.5,0.6-0.6,1.2-0.2,1.7c0.4,0.5,1.1,0.9,2.1,1.1c0.5,0.1,1,0.2,1.5,0.2c0.7,0,1.3-0.1,1.9-0.3c0,0.4,0.3,0.7,0.8,1
		c0.6,0.3,1.2,0.6,1.9,0.7c1.1,0.2,2.3,0.3,3.4,0.1c1-0.2,1.8-0.6,2.4-1.2c0.1-0.1,0.1-0.1,0.2-0.2c0.6-0.7,0.7-1.3,0.2-1.9
		c-0.2-0.2-0.4-0.4-0.6-0.5l13.6,1l-13.2,7.2l-1.9-0.6L562.2,141.5z M585,143.2l0.6,0c0.1,0,0.2,0,0.4,0.1c0.5,0.1,0.8,0.3,1,0.5
		c0.2,0.2,0.2,0.4,0,0.7l-0.1,0.1c-0.3,0.2-0.6,0.4-0.9,0.4c-0.5,0.1-0.9,0.1-1.4-0.1c-0.5-0.1-0.9-0.3-1.1-0.5
		c-0.2-0.2-0.2-0.4,0.1-0.7l0.1-0.1c0.2-0.2,0.6-0.4,0.9-0.4C584.7,143.2,584.8,143.1,585,143.2L585,143.2z M557.8,143.5l8.2,36.8
		l19.8-6.3l7.9-19.2L557.8,143.5z M580.1,168c-1.4,1.3-2.8,1.7-4.2,1.2c-1.4-0.5-3-1.6-4.6-3.3c-1.6-1.8-2.6-3.4-3-4.9
		c-0.3-1.5,0.2-2.8,1.5-4.1c1.4-1.3,2.8-1.7,4.2-1.2c1.4,0.5,3,1.6,4.6,3.3c1.6,1.8,2.6,3.4,2.9,4.9
		C582,165.4,581.5,166.8,580.1,168L580.1,168z M573.6,158.5c0.8,0.4,1.7,1.3,2.9,2.6c1.1,1.2,1.9,2.3,2.3,3.1
		c0.4,0.8,0.3,1.5-0.3,2.1c-0.6,0.6-1.3,0.6-2.1,0.2c-0.8-0.5-1.8-1.3-2.9-2.6c-1.2-1.3-2-2.3-2.3-3.2s-0.2-1.5,0.4-2.1
		C572.2,158.1,572.9,158,573.6,158.5L573.6,158.5z"/>
	<path class="st2" d="M552.5,162.5L542,151.9l-14.8-2.4l1.8,11.4l13.3,6.8L552.5,162.5z M540.7,160.7c0,0.3-0.1,0.6-0.2,0.9
		c-0.3,0.5-0.8,0.9-1.3,1.1c-0.6,0.2-1.3,0.1-2-0.3c-0.8-0.4-1.2-0.9-1.4-1.5c-0.2-0.6-0.2-1.2,0.1-1.7c0.1-0.3,0.3-0.5,0.6-0.7
		c0.3-0.2,0.6-0.3,1.1-0.4c-0.3-0.4-0.4-0.8-0.4-1.3c0-0.5,0.1-0.9,0.3-1.3c0.3-0.6,0.9-1.1,1.5-1.3c0.7-0.2,1.5-0.1,2.3,0.3
		c0.8,0.4,1.4,1,1.6,1.7c0.2,0.7,0.1,1.4-0.2,2c-0.2,0.4-0.5,0.7-0.9,1c-0.4,0.2-0.8,0.4-1.2,0.3C540.6,160,540.7,160.4,540.7,160.7
		L540.7,160.7z M539.2,159.9c0.1,0.3,0,0.5-0.1,0.8c-0.3,0.5-1,0.7-1.5,0.4c-0.2-0.1-0.4-0.3-0.5-0.6c-0.1-0.3,0-0.6,0.1-0.8
		c0.1-0.3,0.3-0.4,0.6-0.5c0.3-0.1,0.6-0.1,0.8,0.1C538.9,159.4,539.1,159.6,539.2,159.9L539.2,159.9z M540.2,158.3
		c-0.7,0.2-1.3-0.2-1.6-0.8c-0.1-0.3,0-0.6,0.2-1c0.1-0.3,0.4-0.6,0.7-0.7c0.7-0.2,1.3,0.2,1.6,0.8c0.1,0.3,0,0.7-0.2,1
		C540.7,157.9,540.5,158.2,540.2,158.3L540.2,158.3z M526.6,161.3l-1.8-11.4l-13.4,6.8l-6.8,13.4l11.4,1.8L526.6,161.3z
		 M512.3,160.8l4.2-4c0.4,0.4,0.7,0.9,0.9,1.5c0.2,0.6,0.2,1.4,0,2.4c-0.1,0.6-0.2,1.2-0.3,1.9c0,0.5,0.2,0.9,0.5,1.2
		c0.2,0.2,0.5,0.4,0.8,0.4c0.3,0,0.6-0.1,0.9-0.3c0.4-0.3,0.5-0.7,0.4-1.1c-0.1-0.3-0.3-0.6-0.6-0.9l1.2-1.1c0.5,0.5,0.8,1,0.9,1.5
		c0.3,0.9,0,1.8-0.8,2.5c-0.6,0.6-1.3,0.9-2.1,0.9c-0.7,0-1.4-0.3-1.9-0.9c-0.4-0.4-0.7-1-0.8-1.6c0-0.5,0-1.1,0.1-1.6l0.2-0.8
		c0.1-0.5,0.2-0.8,0.2-1.1c0-0.2,0-0.4,0-0.6l-2.7,2.6L512.3,160.8z M524.4,186.1l14.2-2.2l2.3-14.2l-12.8-6.6l-10.2,10.1
		L524.4,186.1z M533.6,172.7c-0.2-0.2-0.6-0.3-0.9-0.2c-0.5,0.1-0.8,0.3-0.9,0.7c-0.1,0.4-0.1,0.7,0,1.1l-1.6,0.2
		c-0.1-0.7,0-1.3,0.1-1.8c0.3-0.9,1-1.4,2.1-1.6c0.9-0.1,1.6,0,2.2,0.4c0.6,0.4,1,1,1.1,1.8c0.1,0.6,0,1.2-0.3,1.7
		c-0.3,0.5-0.6,0.9-1,1.2l-0.6,0.6c-0.4,0.4-0.6,0.6-0.7,0.8c-0.1,0.2-0.2,0.3-0.3,0.5l3.6-0.6l0.2,1.4l-5.7,0.9
		c-0.1-0.6,0-1.1,0.1-1.7c0.1-0.6,0.6-1.3,1.4-2c0.5-0.4,0.9-0.9,1.3-1.4c0.3-0.4,0.4-0.8,0.3-1.3
		C534,173.2,533.8,172.9,533.6,172.7L533.6,172.7z M523.7,174c0.4-0.1,0.7-0.2,1.1-0.3c0.3-0.1,0.6-0.3,0.7-0.6
		c0.1-0.2,0.2-0.4,0.2-0.6c0-0.1,0-0.2,0-0.3l1.4-0.2l1.3,8.3l-1.7,0.3l-0.9-5.8l-2,0.3L523.7,174L523.7,174z M524.5,188.5
		l-5.3,10.3l14.8,2.4l13.4-6.8l-8.2-8.2L524.5,188.5z M535.7,197.4c-0.4,0.7-1,1.1-2,1.2c-1,0.2-1.9-0.2-2.5-1
		c-0.5-0.6-0.8-1.5-1-2.6c-0.1-0.5-0.1-1-0.2-1.6c0-0.6,0.1-1.3,0.3-1.9c0.2-0.4,0.4-0.8,0.8-1.1c0.4-0.3,0.8-0.5,1.3-0.6
		c0.8-0.1,1.4,0,1.9,0.3c0.5,0.3,0.9,0.9,1,1.5l-1.6,0.3c0-0.2-0.1-0.3-0.2-0.4c-0.2-0.2-0.5-0.3-0.9-0.3c-0.5,0.1-0.9,0.4-1,1.1
		c-0.1,0.5-0.1,1,0,1.5c0.1-0.3,0.4-0.5,0.6-0.6c0.9-0.5,2-0.4,2.8,0.2c0.6,0.4,0.9,1.1,1,1.8C536.2,196,536,196.7,535.7,197.4
		L535.7,197.4z M533.9,194.6c0.3,0.2,0.5,0.6,0.5,1.1c0.1,0.4,0,0.8-0.1,1.1c-0.2,0.3-0.5,0.5-0.8,0.5c-0.4,0.1-0.7,0-1-0.3
		c-0.3-0.3-0.5-0.6-0.5-1c-0.1-0.6,0-1,0.3-1.3c0.2-0.2,0.4-0.3,0.7-0.4C533.3,194.2,533.6,194.3,533.9,194.6L533.9,194.6z
		 M546.4,178.4l3.6,0.5l-0.3,2.1L546.4,178.4z M543.3,169.8l-2.4,14.7l8.2,8.2l6.8-13.3l-2.3-14.8L543.3,169.8z M553.1,179.3
		l-1.8-0.3l-0.5,3.3l-1.4-0.2l-4.7-3.8l0.3-1.8l5.2,0.7l0.1-0.9l1.3,0.2l-0.1,0.9l1.8,0.3L553.1,179.3z M515.7,174.1l-11.4-1.8
		l2.3,14.8l10.6,10.6l5.3-10.3L515.7,174.1z M507.9,182.7l5.2-2.6l-0.9-1.8l1-0.5c0.2,0.3,0.4,0.6,0.6,0.9c0.2,0.2,0.5,0.4,0.8,0.5
		c0.2,0.1,0.5,0.1,0.7,0c0.1,0,0.2,0,0.3-0.1l0.6,1.2l-7.6,3.7L507.9,182.7z M511.3,189.6l-0.8-1.5l5.2-2.6l-0.9-1.8l1-0.5
		c0.2,0.3,0.4,0.6,0.6,0.9c0.2,0.2,0.5,0.4,0.8,0.5c0.2,0.1,0.5,0.1,0.7,0c0.1,0,0.2,0,0.3-0.1l0.6,1.2L511.3,189.6z"/>
	<path class="st2" d="M468.6,160.5l2.4-4.1v4.1H468.6z M504,197h-65l32.5-56.2L504,197z M453.6,189.3l5.8-3.2l-0.9-1.7L450,189
		l0.8,1.4c0.1-0.1,0.2-0.1,0.4-0.1c0.3-0.1,0.5-0.1,0.8,0c0.3,0.1,0.7,0.3,0.9,0.6c0.3,0.3,0.5,0.7,0.7,1l1.1-0.6L453.6,189.3z
		 M473.9,160.5h-1.1v-6h-2.1l-3.5,5.8v1.7h3.8v2.1h1.9V162h1.1V160.5L473.9,160.5z M492.4,190.3c0.6-1.1,0.7-2.1,0.1-3.1
		c-0.3-0.5-0.8-0.9-1.5-1.4l-0.9,1.6c0.4,0.2,0.7,0.5,0.9,0.8c0.3,0.4,0.3,0.8,0,1.3c-0.2,0.3-0.5,0.6-0.8,0.6c-0.4,0.1-0.7,0-1-0.2
		c-0.4-0.3-0.8-0.7-0.9-1.2c-0.2-0.7-0.3-1.4-0.3-2.1c-0.1-1.2-0.4-2.1-0.8-2.7c-0.4-0.5-0.9-1-1.4-1.3l-3.3,5.7l1.4,0.8l2.1-3.6
		c0.1,0.2,0.2,0.4,0.2,0.6c0,0.2,0.1,0.6,0.1,1.2l0.1,0.9c0,0.6,0.2,1.2,0.4,1.8c0.3,0.6,0.7,1.2,1.3,1.5c0.8,0.5,1.6,0.6,2.4,0.3
		C491.3,191.8,491.9,191.2,492.4,190.3L492.4,190.3z"/>
	<path class="st2" d="M398.7,198.3l46.2-26.1l-45.9-27L398.7,198.3z M403,198.7l29-2.8l11.9-20.4L403,198.7z M396.3,194.7l0.2-47.1
		l-12,20.4L396.3,194.7z M420.2,193.2l1.6-2.8l1.8-0.6l-1.3,2.2c0.6-0.2,1.2-0.4,1.8-0.6c-0.4-0.3,0.1-0.9,0.3-1.2
		c0.9-1.1,2.4-1.6,3.6-2.2c0.4-0.2,0.9-0.4,1.3-0.5c0.9-0.1,1.4,0.1,1.3,1c-0.6,1-1.6,1.7-2.6,2.1l-1.3,0.6c0.2-0.3,0.4-0.6,0.6-0.9
		c0.6-0.4,1.6-0.7,1.8-1.4c-0.9-0.7-2.4,0.5-3.1,1c-0.3,0.3-0.7,0.5-0.2,0.8l-0.5,0.9L420.2,193.2z M393,177l-1.7-10.4l0.5-0.9
		l1.2,7l0.6-1.1l0.2,1.4c-0.3,0.5-0.5,1.2-0.6,1.7c0,0.5,0.1,1,0.1,1.6L393,177z M411.3,176.8c-1.1-0.6-1.8-1.3-2.1-2
		c-0.3-0.7-0.3-1.5,0.2-2.2c0.3-0.5,0.7-0.8,1.2-1c0.5-0.2,1-0.2,1.7,0c-0.5-0.5-0.8-1.1-0.9-1.6c-0.1-0.6,0-1.1,0.4-1.7
		c0.5-0.9,1.2-1.4,2.1-1.5c0.8-0.1,1.9,0.2,3,0.9c1.2,0.7,1.9,1.4,2.2,2.2c0.3,0.8,0.2,1.6-0.3,2.5c-0.3,0.6-0.8,1-1.3,1.2
		c-0.5,0.2-1.2,0.2-1.9,0c0.4,0.5,0.7,1,0.8,1.5c0.1,0.5,0,1-0.3,1.5c-0.4,0.8-1.1,1.2-1.9,1.2C413.3,177.8,412.4,177.5,411.3,176.8
		L411.3,176.8z M412.2,175.4c0.4,0.2,0.7,0.3,1,0.2c0.3-0.1,0.6-0.3,0.8-0.6c0.2-0.4,0.3-0.7,0.2-1c-0.1-0.3-0.3-0.6-0.7-0.8
		c-0.4-0.2-0.7-0.3-1-0.2c-0.3,0.1-0.6,0.3-0.8,0.6c-0.2,0.4-0.3,0.7-0.2,1C411.6,174.9,411.8,175.2,412.2,175.4L412.2,175.4z
		 M414.3,171.7c0.4,0.3,0.8,0.3,1.2,0.2c0.4-0.1,0.7-0.4,0.9-0.8c0.3-0.4,0.3-0.8,0.2-1.2c-0.1-0.4-0.4-0.7-0.8-0.9
		c-0.4-0.3-0.8-0.3-1.2-0.2c-0.4,0.1-0.7,0.4-0.9,0.8c-0.3,0.4-0.3,0.8-0.3,1.2C413.6,171.2,413.9,171.5,414.3,171.7L414.3,171.7z
		 M444.7,169.4l-12.4-28.3l-30.7,2.9L444.7,169.4z M428.5,155.9l-7-4.1l0.4-0.6c2.3,0.3,3.8,0,5.5-1.2l2,1.2c-2,1.2-3.2,1.2-5.4,1.3
		l4.8,2.8L428.5,155.9z"/>
	<path class="st2" d="M468.5,129.3c-1.7,1.5-1.9,4.1-0.4,5.8l25.3,29.4c1.5,1.7,4.1,1.9,5.8,0.4l0,0l29.4-25.3
		c1.7-1.5,1.9-4.1,0.4-5.8l0,0l-25.3-29.4c-1.5-1.7-4.1-1.9-5.8-0.4L468.5,129.3z M474.9,128.8c2.2-1.8,5.5-1.5,7.4,0.7
		c1.9,2.2,1.7,5.6-0.6,7.5c-2.2,1.9-5.6,1.7-7.5-0.6c-1.9-2.2-1.7-5.6,0.6-7.5C474.9,128.9,474.9,128.9,474.9,128.8z M496.6,110.2
		c2.2-1.8,5.5-1.5,7.4,0.7c1.9,2.2,1.7,5.6-0.6,7.5c-2.2,1.9-5.6,1.7-7.5-0.6c-1.9-2.2-1.7-5.6,0.6-7.5
		C496.6,110.2,496.6,110.2,496.6,110.2z M484.2,139.8c2.2-1.9,5.6-1.7,7.5,0.6c1.9,2.2,1.7,5.6-0.6,7.5c-2.2,1.9-5.6,1.7-7.5-0.6
		C481.7,145.1,481.9,141.7,484.2,139.8z M505.9,121.1c2.2-1.9,5.6-1.7,7.5,0.6c1.9,2.2,1.7,5.6-0.6,7.5c-2.2,1.9-5.6,1.7-7.5-0.6
		C503.4,126.4,503.6,123,505.9,121.1z M493.6,150.5c2.2-1.8,5.5-1.5,7.4,0.7c1.9,2.2,1.7,5.6-0.6,7.5s-5.6,1.7-7.5-0.6
		c-1.9-2.2-1.7-5.6,0.6-7.5C493.5,150.6,493.6,150.6,493.6,150.5z M515.3,131.9c2.2-1.8,5.5-1.5,7.4,0.7c1.9,2.2,1.7,5.6-0.6,7.5
		s-5.6,1.7-7.5-0.6c-1.9-2.2-1.7-5.6,0.6-7.5C515.2,131.9,515.3,131.9,515.3,131.9z"/>
	<path class="st2" d="M322.1,153c-2.3,0-4.1,1.8-4.1,4.1v38.8c0,2.3,1.8,4.1,4.1,4.1l0,0h38.8c2.3,0,4.1-1.8,4.1-4.1l0,0v-38.8
		c0-2.3-1.8-4.1-4.1-4.1H322.1z M327.3,156.8c2.9,0.1,5.2,2.4,5.2,5.3c0,2.9-2.4,5.3-5.3,5.3s-5.3-2.4-5.3-5.3
		c0-2.9,2.4-5.3,5.3-5.3C327.2,156.8,327.3,156.8,327.3,156.8z M356,156.8c2.9,0.1,5.2,2.4,5.2,5.3c0,2.9-2.4,5.3-5.3,5.3
		s-5.3-2.4-5.3-5.3c0-2.9,2.4-5.3,5.3-5.3C355.9,156.8,355.9,156.8,356,156.8z M327.2,171.2c2.9,0,5.3,2.4,5.3,5.3s-2.4,5.3-5.3,5.3
		s-5.3-2.4-5.3-5.3S324.2,171.2,327.2,171.2z M355.8,171.2c2.9,0,5.3,2.4,5.3,5.3s-2.4,5.3-5.3,5.3s-5.3-2.4-5.3-5.3
		S352.9,171.2,355.8,171.2z M327.3,185.5c2.9,0.1,5.2,2.4,5.2,5.3c0,2.9-2.4,5.3-5.3,5.3s-5.3-2.4-5.3-5.3c0-2.9,2.4-5.3,5.3-5.3
		C327.2,185.5,327.3,185.5,327.3,185.5z M356,185.5c2.9,0.1,5.2,2.4,5.2,5.3c0,2.9-2.4,5.3-5.3,5.3s-5.3-2.4-5.3-5.3
		c0-2.9,2.4-5.3,5.3-5.3C355.9,185.5,355.9,185.5,356,185.5z"/>
	<path class="st2" d="M629.9,142.6l14.9-25.9l-22.1,12.1L629.9,142.6z M627.8,143.6l-7.2-13.8L598.1,141L627.8,143.6z M619.4,139.1
		c-0.6,0.3-1.4,0.4-2,0.4c-1,0-1.5-0.4-2.2,0.5c-1.4,0.6-3.2,0.7-4.5-0.2c-0.9-0.3-1-1.5-0.2-2c1.2-0.7,2.9-0.5,2.4,0.1
		c-0.5,0.6-1.9,0.9-0.9,1.4c0.8,0.3,1.9,0.3,2.5-0.3c-0.2-1,0.9-1.1,1.6-0.7c0.7,0.6,1.7,0.4,2.4,0c0.6-0.7-0.8-1-1.3-0.9
		c-1.1,0.3-0.5-0.9,0.2-0.9c0.7,0,2.5,0.2,2.9,1.4C620.2,138.5,619.8,138.9,619.4,139.1L619.4,139.1z M631.4,132.8
		c-0.7,0.3-1.8,0.4-2-0.6c0.1-1.2,0.4-2.3,1.3-3.1c0.6-0.9,1.6-1.5,2.6-1.7c0.6,0,2.3,0.3,2.1-0.6c-0.3-0.8-1.4-1.8-0.3-2.4l0.5-0.6
		l1.6,3.1c-1,1.1-2.4,2-3.9,1.8c-1.3,0-2.6,1.1-2.7,2.3c0.3,0.9,1.3,0,1.8-0.4C633.4,131.7,632,132.3,631.4,132.8L631.4,132.8z
		 M622.4,126.3l23.4-12.9L624,93.7L622.4,126.3z M618.8,128.2l-27.7-17.4l3.7,29.2L618.8,128.2z M620.1,126.3l1.6-33.2L592,108.6
		L620.1,126.3z M603.3,132.1c-0.5,0.3-1.1,0.4-1.6,0.3c-2.3-0.1-4.5-1.9-5.6-4c-0.4-0.7-0.7-1.8-0.4-2.6c0.2-0.4,0.6-0.8,0.9-1.2
		c2.2-1,4.3,0.9,5.9,2.2c1.1,1,2.3,2.7,1.9,4.1C604.3,131.5,603.8,131.9,603.3,132.1L603.3,132.1z M631.8,116.1
		c-0.8,0.4-2,0.2-2.6-0.5c-0.5-0.4-0.7-1.5-0.2-1.9c0.6-0.4,1.1,0.9,2,0.9c1,0.1,1.2-1.3,1.2-2c0-0.1,0-0.3-0.1-0.4
		c-1.1,1.2-3.1,0.4-3.7-0.8c-0.7-1.5-0.6-3.7,0.6-4.9l0.7-0.4c1.7-0.8,3.4,0.8,3.6,2.4c0.5,2.3,0.9,5-0.8,7
		C632.3,115.7,632,115.9,631.8,116.1z M602.5,130.8c0.9-0.4-0.1-1.6-0.5-2.1c-0.9-1.2-2.1-2.1-3.5-2.6c-0.3-0.1-0.6,0-0.9,0
		c-0.8,0.6,0.3,1.9,0.6,2.3C599.5,129.6,600.6,131,602.5,130.8L602.5,130.8z M643.8,108.5l-11.5-22l-7.5,4.8L643.8,108.5z
		 M591.9,135.6l-3.2-25.4l-8.2,3.4L591.9,135.6z M606.9,127.7l-7.8-6.2l1-1.2l5.4,4.2c0.6-0.8,1.1-2,1.9-0.8
		c0.4,0.4-0.7,1.2-0.2,2.1C607.7,126.5,607.7,127.4,606.9,127.7L606.9,127.7z M631.4,110.9c0.3-0.2,0.5-0.5,0.6-0.8
		c0-0.8-0.2-1.6-0.7-2.2c-0.8-1-2.1,0.1-1.9,1.1c0,0.8,0.3,1.7,1.1,2c0.3,0.1,0.6,0.1,0.8,0C631.4,111,631.4,111,631.4,110.9
		L631.4,110.9z M588.9,127.7c-0.5,0.2-1.2-0.5-1.3-1.1c-1.2-2.4-2.7-4.9-2.4-7.7c0-0.2,0.2-0.4,0.3-0.6c1,0.1,1.1,1.2,0.9,2.1
		c-0.6-0.9-0.5,0.7-0.5,1.1c0,0.5,0.7,2.5,0.8,1.2c-0.4-0.5,0-2.1,0.7-1.7c1.6,1.5,2,3.9,2,6C589.2,127.4,589,127.6,588.9,127.7
		L588.9,127.7z M638.9,101.5c-0.1,0-0.2,0-0.6-0.3l-4.1-7.8c1.4,0.4,1.6,2,2.3,3.1c0.6,0.9,0.9,2.2,1.7,2.9c0.7-0.1,1.9,1.8,1.2,1.4
		C638.6,100.4,639.1,101.4,638.9,101.5L638.9,101.5z M617.5,111.9c-0.6,0.3-1.2,0.4-1.8,0.4c-1.3,0-2.7-0.9-2.9-2.3
		c-0.4-1.4,0.3-2.8,1.1-3.8c0.3-0.6,0.9-1.2,0.8-1.9c0-0.5-3.3,1.5-4,1.8c-0.3-0.5-0.9-1.3-0.3-1.7c1.9-0.8,3.8-1.9,5.8-2.9
		c0.7,1.4,0.5,3.2-0.4,4.5c-0.6,1.1-1.3,2.2-1.1,3.5c0.1,0.7,0.7,1.1,1.3,1.2c0.7,0.1,1.5-0.4,1.5-1.2c0-0.6,0-1.4,0.5-1.8
		c0.3-0.2,1.1-0.7,1.2,0.1c0.2,0.8,0.3,1.7,0,2.5C618.8,111,618.2,111.6,617.5,111.9L617.5,111.9z M610,115.8
		c-0.3,0.2-0.7,0.3-1,0.3c-1,0.2-2.1-0.2-2.8-0.9c-1.8-1.5-2.9-3.8-2.5-6.1c0.3-0.9,0.7-1.8,1.5-2.3c1.6-0.8,3.6-0.1,4.7,1.3
		c1.3,1.5,2.1,3.5,1.8,5.5c-0.1,0.9-0.7,1.7-1.5,2.2C610.1,115.7,610,115.7,610,115.8z M588.5,126c0.1-0.1,0.2-0.3,0.1-0.7
		c-0.2-0.9-0.5-1.9-1.2-2.5c-0.5,0.6-0.1,1.6,0.1,2.3C587.6,125.7,588.2,126.2,588.5,126L588.5,126z M609.2,114.3
		c0.4-0.2,0.7-0.8,0.7-1.3c0-0.7-0.3-1.3-0.5-1.9c-0.5-1.2-1.2-2.5-2.5-3l-0.4,0c-0.7,0.1-1.1,0.9-1,1.6c0.2,0.9,0.6,1.8,1,2.6
		c0.5,0.9,1.2,1.8,2.2,2.1C608.9,114.4,609,114.4,609.2,114.3L609.2,114.3z M589.9,123.6l-4.1-7.8l0.1-1.1l2.8,5.4
		c0.1-1.3,0.5-1.7,0.8-0.3C589.3,121,590.1,122.3,589.9,123.6L589.9,123.6z M635.5,99.6C635.5,99.6,635.5,99.6,635.5,99.6
		c-0.6,0.3-1.4-0.5-1.9-0.8c-0.3-0.4-1.8-1.9-1.2-1.7c0.1,0,0.1,0.1,0.2,0.1l-0.5-0.3c0.8,0.2,1.5,0.9,1.1,0.7
		c0.4,0.3,0.8,0.6,1.1,0.9c-0.1-0.2,0-0.3,0.1-0.5c-0.1-0.5-0.3-1-0.6-1.4c0.1,0.2,0,0.4-0.4,0.3c-1.8-1.1-3.5-2.9-3.8-5l0.2-0.3
		c1.7,0.1,2.7,1.7,3.7,2.9c1,1.5,1.7,3.1,2.1,4.8C635.6,99.4,635.6,99.5,635.5,99.6C635.5,99.6,635.5,99.6,635.5,99.6L635.5,99.6z
		 M635.5,99.6c0,0-0.1-0.1-0.1-0.1C635.4,99.5,635.4,99.5,635.5,99.6L635.5,99.6z M633.2,95.8c0.2-0.9-0.6-1.8-1.2-2.4
		c-0.5-0.6-1.6-0.8-0.9,0.2c0.4,0.7,0.8,1.5,1.5,1.9C632.7,95.5,633,95.6,633.2,95.8L633.2,95.8z M620.1,91.4l-22.5-8.2l-6.2,23.1
		L620.1,91.4z M622.8,89.9l6.5-4.2l-10.9-1c0.5,0.2,1,0.4,1.5,0.6c1.1,0.5,2.2,1,3.5,0.9c1.5,0.2,0.9,0.4-0.2,0.5
		c0.2,0.2,0.3,0.3,0.2,0.3c-0.3,0.2-1.4,0-1.7-0.2l-5.2-2.4l-11-1L622.8,89.9z M588.7,107.7L591,99c-0.6,0.8-0.9,1.8-1.3,2.7
		c-0.2,0.3-0.3,0.5-0.4,0.5c-0.3,0.1,0.2-1.3,0.3-1.8c0.5-1.9,0.5-4,1.7-5.6l-0.8,4.4c0.2-0.3,0.5-0.8,0.8-1.1l2.2-8.3l-6.3,11
		c-0.3,1.2,0.1,0.8,0.8-0.3L589,99c-0.5,2.5-1.9,4.8-2.7,7.2c-0.3,0.4-0.8,1.3-1,1.5c-0.1,0.1-0.1-0.1,0.1-0.7l0.5-2.9
		c-0.8,1.6-0.4-0.4,0.2-1c0-0.2,0.1-0.3,0.1-0.5l-4.6,8L588.7,107.7z M607.7,95.1c-0.2,0.1-0.4,0.2-0.5,0.2l-2.9-5.5l1.7-0.9l2,3.8
		c0.7-0.2,1.2-0.9,2-1c0.7,0.1,0.3,0.9-0.2,1c-0.4,0.2-1,0.5-1,1C608.7,94.4,608.2,94.8,607.7,95.1L607.7,95.1z M603.5,97.2
		c-0.1,0-0.1,0.1-0.2,0.1c-0.5,0.1-0.8,0.4-1.3,0.6l-3.2,1.7c-0.4-0.3-0.6-0.9-0.1-1.2c0.5-0.3,1-0.5,1.5-0.8c0.6-0.3,1.4-0.4,1.8-1
		c0.3-0.4,0-1.4-0.5-0.7c-0.4,0.4-0.8,0.7-1.3,0.8c-1,0.3-2.1,0.6-3,0.1c-0.5-0.3-0.8-0.8-0.8-1.3c0-1.1,0.9-1.8,1.7-2.5
		c0.3-0.2,0.5-0.5,0.8-0.6c1-0.4,2.1-0.9,3.1-0.5c0.5,0.1,0.8,0.7,0.2,1c-0.4,0.3-1.1,0.6-1.5,0.2c-0.7-0.3-1.3,0.2-1.8,0.6
		c-0.4,0.3-0.8,0.8-0.5,1.4c0.2,0.6,0.9,0.7,1.4,0.5c0.9-0.1,1.4-0.9,2.1-1.4c0.4-0.4,1.2-0.7,1.4,0c0.2,0.6,0.2,1.2,0.5,1.8
		C603.8,96.3,603.9,96.9,603.5,97.2L603.5,97.2z M586.2,105.4c0,0,0.5-1.2,0.7-1.7l1.1-2.7c-0.8,1.1-1.5,2.3-1.7,3.7
		C586.2,105.2,586.1,105.4,586.2,105.4L586.2,105.4z M616.6,87.2c-0.3,0.2-1.3-0.1-1.7-0.3l-5.4-2.2c1.1-0.2,2.2,0,3.2,0.6
		c1.3,0.5,2.5,1.4,4,1.1c1.5,0,1.1,0.5-0.1,0.4C616.8,87,616.7,87.2,616.6,87.2L616.6,87.2z"/>
	<path class="st2" d="M197.5,190.5l-4.8-0.1l3.6-2L197.5,190.5z M212.8,141.9l30.9,57.1l-64.9-1.8L212.8,141.9z M230,189.9l-5.6-3.6
		l-1,1.6l8.1,5.1l0.8-1.3c-0.1-0.1-0.2-0.2-0.3-0.3c-0.2-0.2-0.3-0.4-0.4-0.7c-0.1-0.3-0.1-0.7,0.1-1.1c0.2-0.4,0.4-0.8,0.6-1.1
		l-1.1-0.7L230,189.9z M195,185.8l0.5,1l-5.3,2.9l1,1.9l6.8,0.3l1.5-0.8l-1.8-3.3l1.8-1l-0.9-1.6l-1.8,1l-0.5-1L195,185.8L195,185.8
		z M212.4,155.3c-1.3,0-2.2,0.4-2.7,1.4c-0.3,0.5-0.4,1.2-0.5,2l1.8,0c0-0.4,0.1-0.8,0.2-1.2c0.2-0.4,0.6-0.6,1.2-0.6
		c0.4,0,0.7,0.1,1,0.4c0.2,0.3,0.3,0.7,0.3,1c0,0.5-0.2,1-0.6,1.4c-0.5,0.5-1.1,0.9-1.7,1.3c-1,0.7-1.7,1.4-2,2
		c-0.3,0.6-0.5,1.2-0.5,1.9l6.6,0.2l0-1.7l-4.2-0.1c0.1-0.2,0.3-0.4,0.5-0.5c0.2-0.1,0.5-0.4,1-0.7l0.8-0.5c0.5-0.3,1-0.7,1.4-1.2
		c0.4-0.5,0.7-1.2,0.7-1.9c0-0.9-0.3-1.7-0.9-2.3C214.3,155.6,213.5,155.3,212.4,155.3L212.4,155.3z"/>
	<path class="st2" d="M54.5,162.5L44,151.9l-14.8-2.4l1.8,11.4l13.3,6.8L54.5,162.5z M42.7,160.7c0,0.3-0.1,0.6-0.2,0.9
		c-0.3,0.5-0.8,0.9-1.3,1.1c-0.6,0.2-1.3,0.1-2-0.3c-0.8-0.4-1.2-0.9-1.4-1.5c-0.2-0.6-0.2-1.2,0.1-1.7c0.1-0.3,0.3-0.5,0.6-0.7
		c0.3-0.2,0.6-0.3,1.1-0.4c-0.3-0.4-0.4-0.8-0.4-1.3c0-0.5,0.1-0.9,0.3-1.3c0.3-0.6,0.9-1.1,1.5-1.3c0.7-0.2,1.5-0.1,2.3,0.3
		c0.8,0.4,1.4,1,1.6,1.7c0.2,0.7,0.1,1.4-0.2,2c-0.2,0.4-0.5,0.7-0.9,1c-0.4,0.2-0.8,0.4-1.2,0.3C42.6,160,42.7,160.4,42.7,160.7
		L42.7,160.7z M41.2,159.9c0.1,0.3,0,0.5-0.1,0.8c-0.3,0.5-1,0.7-1.5,0.4c-0.2-0.1-0.4-0.3-0.5-0.6c-0.1-0.3,0-0.6,0.1-0.8
		c0.1-0.3,0.3-0.4,0.6-0.5c0.3-0.1,0.6-0.1,0.8,0.1C40.9,159.4,41.1,159.6,41.2,159.9L41.2,159.9z M42.2,158.3
		c-0.7,0.2-1.3-0.2-1.6-0.8c-0.1-0.3,0-0.6,0.2-1c0.1-0.3,0.4-0.6,0.7-0.7c0.7-0.2,1.3,0.2,1.6,0.8c0.1,0.3,0,0.7-0.2,1
		C42.7,157.9,42.5,158.2,42.2,158.3L42.2,158.3z M28.6,161.3l-1.8-11.4l-13.4,6.8L6.6,170l11.4,1.8L28.6,161.3z M14.3,160.8l4.2-4
		c0.4,0.4,0.7,0.9,0.9,1.5c0.2,0.6,0.2,1.4,0,2.4c-0.1,0.6-0.2,1.2-0.3,1.9c0,0.5,0.2,0.9,0.5,1.2c0.2,0.2,0.5,0.4,0.8,0.4
		c0.3,0,0.6-0.1,0.9-0.3c0.4-0.3,0.5-0.7,0.4-1.1c-0.1-0.3-0.3-0.6-0.6-0.9l1.2-1.1c0.5,0.5,0.8,1,0.9,1.5c0.3,0.9,0,1.8-0.8,2.5
		c-0.6,0.6-1.3,0.9-2.1,0.9s-1.4-0.3-1.9-0.9c-0.4-0.4-0.7-1-0.8-1.6c0-0.5,0-1.1,0.1-1.6l0.2-0.8c0.1-0.5,0.2-0.8,0.2-1.1
		s0-0.4,0-0.6l-2.7,2.6L14.3,160.8z M26.4,186.1l14.2-2.2l2.3-14.2l-12.8-6.6l-10.2,10.1L26.4,186.1z M35.6,172.7
		c-0.2-0.2-0.6-0.3-0.9-0.2c-0.5,0.1-0.8,0.3-0.9,0.7c-0.1,0.4-0.1,0.7,0,1.1l-1.6,0.2c-0.1-0.7,0-1.3,0.1-1.8
		c0.3-0.9,1-1.4,2.1-1.6c0.9-0.1,1.6,0,2.2,0.4c0.6,0.4,1,1,1.1,1.8c0.1,0.6,0,1.2-0.3,1.7c-0.3,0.5-0.6,0.9-1,1.2l-0.6,0.6
		c-0.4,0.4-0.6,0.6-0.7,0.8c-0.1,0.2-0.2,0.3-0.3,0.5l3.6-0.6l0.2,1.4l-5.7,0.9c-0.1-0.6,0-1.1,0.1-1.7c0.1-0.6,0.6-1.3,1.4-2
		c0.5-0.4,0.9-0.9,1.3-1.4c0.3-0.4,0.4-0.8,0.3-1.3C36,173.2,35.8,172.9,35.6,172.7L35.6,172.7z M25.7,174c0.4-0.1,0.7-0.2,1.1-0.3
		c0.3-0.1,0.6-0.3,0.7-0.6c0.1-0.2,0.2-0.4,0.2-0.6c0-0.1,0-0.2,0-0.3l1.4-0.2l1.3,8.3l-1.7,0.3l-0.9-5.8l-2,0.3L25.7,174L25.7,174z
		 M26.5,188.5l-5.3,10.3l14.8,2.4l13.4-6.8l-8.2-8.2L26.5,188.5z M37.7,197.4c-0.4,0.7-1,1.1-2,1.2c-1,0.2-1.9-0.2-2.5-1
		c-0.5-0.6-0.8-1.5-1-2.6c-0.1-0.5-0.1-1-0.2-1.6c0-0.6,0.1-1.3,0.3-1.9c0.2-0.4,0.4-0.8,0.8-1.1c0.4-0.3,0.8-0.5,1.3-0.6
		c0.8-0.1,1.4,0,1.9,0.3c0.5,0.3,0.9,0.9,1,1.5l-1.6,0.3c0-0.2-0.1-0.3-0.2-0.4c-0.2-0.2-0.5-0.3-0.9-0.3c-0.5,0.1-0.9,0.4-1,1.1
		c-0.1,0.5-0.1,1,0,1.5c0.1-0.3,0.4-0.5,0.6-0.6c0.9-0.5,2-0.4,2.8,0.2c0.6,0.4,0.9,1.1,1,1.8C38.2,196,38,196.7,37.7,197.4
		L37.7,197.4z M35.9,194.6c0.3,0.2,0.5,0.6,0.5,1.1c0.1,0.4,0,0.8-0.1,1.1c-0.2,0.3-0.5,0.5-0.8,0.5c-0.4,0.1-0.7,0-1-0.3
		c-0.3-0.3-0.5-0.6-0.5-1c-0.1-0.6,0-1,0.3-1.3c0.2-0.2,0.4-0.3,0.7-0.4C35.3,194.2,35.6,194.3,35.9,194.6L35.9,194.6z M48.4,178.4
		l3.6,0.5l-0.3,2.1L48.4,178.4z M45.3,169.8l-2.4,14.7l8.2,8.2l6.8-13.3l-2.3-14.8L45.3,169.8z M55.1,179.3l-1.8-0.3l-0.5,3.3
		l-1.4-0.2l-4.7-3.8l0.3-1.8l5.2,0.7l0.1-0.9l1.3,0.2l-0.1,0.9l1.8,0.3L55.1,179.3z M17.7,174.1l-11.4-1.8l2.3,14.8l10.6,10.6
		l5.3-10.3L17.7,174.1z M9.9,182.7l5.2-2.6l-0.9-1.8l1-0.5c0.2,0.3,0.4,0.6,0.6,0.9c0.2,0.2,0.5,0.4,0.8,0.5c0.2,0.1,0.5,0.1,0.7,0
		c0.1,0,0.2,0,0.3-0.1l0.6,1.2l-7.6,3.7L9.9,182.7z M13.3,189.6l-0.8-1.5l5.2-2.6l-0.9-1.8l1-0.5c0.2,0.3,0.4,0.6,0.6,0.9
		c0.2,0.2,0.5,0.4,0.8,0.5c0.2,0.1,0.5,0.1,0.7,0c0.1,0,0.2,0,0.3-0.1l0.6,1.2L13.3,189.6z"/>
	<path class="st2" d="M111.9,140.7L82,141.3l21.8,12.7L111.9,140.7z M113.8,141.9l-8.1,13.3l21.2,13.6L113.8,141.9z M114.3,151.5
		c0.6,0.3,1.1,0.9,1.4,1.5c0.5,0.9,0.5,1.5,1.5,1.6c1.2,0.9,2.3,2.4,2.2,4c0.2,0.9-0.8,1.7-1.6,1.2c-1.2-0.7-2-2.2-1.2-2.1
		c0.7,0.1,1.7,1.2,1.6,0.1c-0.1-0.8-0.8-1.8-1.6-1.9c-0.7,0.7-1.4-0.2-1.4-1c0.1-0.9-0.5-1.7-1.3-2.1c-0.9-0.1-0.5,1.2-0.1,1.6
		c0.8,0.9-0.5,0.9-0.9,0.3c-0.3-0.6-1.1-2.3-0.3-3.3C113.4,151.1,113.9,151.2,114.3,151.5L114.3,151.5z M102.7,144.4
		c0.6,0.5,1.3,1.3,0.5,2c-1,0.5-2.2,0.9-3.3,0.5c-1-0.1-2.1-0.6-2.8-1.4c-0.3-0.5-0.9-2.1-1.6-1.5c-0.5,0.7-0.8,2.1-1.9,1.5
		l-0.8-0.1l1.8-3c1.5,0.3,2.9,1,3.6,2.4c0.7,1.1,2.3,1.6,3.4,1.1c0.6-0.7-0.7-1.2-1.2-1.3C100.7,143.3,102,144.2,102.7,144.4
		L102.7,144.4z M101.8,155.5l-23.1-13.4L73,171L101.8,155.5z M105.3,157.6l-0.6,32.7l23.1-18.3L105.3,157.6z M103,157.5l-29.3,15.7
		l28.6,17.5L103,157.5z M116.6,168.8c0.5,0.3,0.9,0.7,1.1,1.2c1.1,2,0.7,4.8-0.5,6.9c-0.4,0.7-1.2,1.5-2,1.6c-0.5,0-1-0.1-1.5-0.1
		c-2-1.4-1.5-4.1-1.2-6.2c0.3-1.5,1.1-3.4,2.6-3.7C115.6,168.4,116.1,168.5,116.6,168.8L116.6,168.8z M88.2,152.8
		c0.8,0.5,1.2,1.6,1,2.5c0,0.6-0.9,1.4-1.5,1.1c-0.7-0.3,0.2-1.4-0.3-2.1c-0.4-0.9-1.7-0.3-2.4,0c-0.1,0.1-0.2,0.2-0.3,0.3
		c1.6,0.3,2,2.4,1.2,3.6c-0.9,1.4-2.8,2.4-4.5,2l-0.7-0.4c-1.5-1-1.1-3.3,0.3-4.3c1.7-1.6,3.9-3.3,6.4-2.9
		C87.6,152.5,87.9,152.6,88.2,152.8z M115.9,170.2c-0.9-0.5-1.3,0.9-1.5,1.5c-0.6,1.4-0.7,2.9-0.4,4.3c0.1,0.3,0.3,0.5,0.5,0.8
		c0.9,0.4,1.5-1.2,1.7-1.7C116.4,173.4,117.1,171.7,115.9,170.2L115.9,170.2z M75.5,146.3l-12.9,21.2l8,3.9L75.5,146.3z
		 M125.4,176.8l-20.1,15.9l7.1,5.3L125.4,176.8z M111,168.1l-1.3,9.9l-1.6-0.2l0.8-6.8c-1-0.1-2.3,0.1-1.7-1.2
		c0.1-0.6,1.4,0,1.9-0.9C109.6,168,110.3,167.6,111,168.1L111,168.1z M84,155.7c-0.3-0.2-0.6-0.2-1-0.1c-0.7,0.4-1.3,0.9-1.5,1.7
		c-0.5,1.2,1.2,1.8,2,1.1c0.7-0.4,1.3-1.1,1.1-2c-0.1-0.3-0.3-0.6-0.5-0.7C84,155.7,84,155.7,84,155.7L84,155.7z M120.3,183.5
		c0.4,0.3,0.2,1.3-0.2,1.7c-1.4,2.3-2.8,4.9-5.3,6c-0.2,0.1-0.4,0.1-0.6,0c-0.4-0.9,0.5-1.6,1.3-1.8c-0.4,1,0.9,0.1,1.2-0.2
		c0.4-0.3,1.8-1.9,0.6-1.3c-0.2,0.5-1.8,1.1-1.8,0.3c0.5-2.1,2.3-3.7,4.1-4.8C119.9,183.4,120.1,183.4,120.3,183.5L120.3,183.5z
		 M72,154.2c0.1,0.1,0.1,0.2,0,0.6l-4.6,7.5c-0.4-1.4,0.9-2.4,1.4-3.6c0.5-1,1.4-1.9,1.6-2.9c-0.4-0.6,0.6-2.5,0.6-1.8
		C71.3,154.9,71.8,154,72,154.2L72,154.2z M92,167.1c0.5,0.3,1,0.8,1.3,1.4c0.7,1.1,0.6,2.8-0.4,3.7c-1,1-2.5,1.2-3.9,1
		c-0.7,0-1.5-0.1-2.1,0.3c-0.4,0.3,3,2.1,3.6,2.5c-0.2,0.5-0.6,1.4-1.3,1.1c-1.7-1.2-3.6-2.3-5.5-3.4c0.9-1.3,2.5-2.1,4.1-2
		c1.2-0.1,2.6,0,3.6-0.8c0.5-0.4,0.6-1.2,0.3-1.7c-0.3-0.7-1.2-1.1-1.8-0.7c-0.5,0.3-1.2,0.8-1.8,0.5c-0.4-0.2-1.1-0.6-0.5-1.1
		c0.6-0.6,1.3-1.2,2.1-1.2C90.5,166.5,91.3,166.7,92,167.1L92,167.1z M99.2,171.6c0.3,0.2,0.6,0.4,0.8,0.7c0.7,0.8,0.9,1.9,0.7,2.9
		c-0.3,2.3-1.8,4.5-4,5.3c-0.9,0.2-1.9,0.4-2.8-0.2c-1.5-1-1.9-3-1.3-4.7c0.6-1.9,1.9-3.6,3.8-4.3c0.9-0.4,1.8-0.3,2.6,0.2
		C99.1,171.5,99.1,171.6,99.2,171.6z M119.1,184.7c-0.1-0.1-0.3,0-0.6,0.2c-0.6,0.6-1.4,1.4-1.5,2.3c0.8,0.1,1.4-0.8,1.9-1.3
		C119.2,185.7,119.3,184.9,119.1,184.7L119.1,184.7z M98.4,173c-0.4-0.3-1-0.2-1.4,0.1c-0.6,0.3-0.9,1-1.4,1.5
		c-0.8,1.1-1.5,2.3-1.3,3.7l0.2,0.3c0.5,0.6,1.3,0.5,1.9,0c0.7-0.6,1.2-1.4,1.7-2.2c0.5-0.9,0.9-1.9,0.7-3
		C98.6,173.2,98.5,173.1,98.4,173L98.4,173z M116.2,184.8l-4.6,7.5l-1,0.5l3.2-5.2c-1.1,0.6-1.8,0.4-0.7-0.6
		C114.4,186.6,115,185.2,116.2,184.8L116.2,184.8z M72.2,158.1C72.2,158.1,72.2,158.1,72.2,158.1c0.6,0.3,0.3,1.5,0.3,2
		c-0.2,0.5-0.7,2.6-0.9,2c0-0.1,0-0.2,0-0.2l0,0.5c-0.3-0.8,0-1.8,0.1-1.3c0-0.5,0.1-1,0.2-1.4c-0.1,0.1-0.2,0.2-0.5,0.2
		c-0.4,0.3-0.7,0.8-0.9,1.3c0.1-0.2,0.3-0.2,0.5,0.2c0,2.1-0.7,4.5-2.4,5.9l-0.4,0c-0.8-1.5,0.1-3.2,0.6-4.7c0.7-1.6,1.7-3.1,3-4.3
		C71.9,158,72.1,158,72.2,158.1C72.2,158.1,72.2,158.1,72.2,158.1L72.2,158.1z M72.2,158.1c0,0.1,0,0.1,0,0.2
		C72.1,158.2,72.1,158.1,72.2,158.1L72.2,158.1z M70.1,162c-0.8,0.3-1.2,1.4-1.4,2.2c-0.3,0.8,0.1,1.8,0.6,0.6
		c0.4-0.7,0.9-1.4,0.9-2.2C70.1,162.5,70.1,162.3,70.1,162L70.1,162z M73,175.5l4.6,23.5l23-6.6L73,175.5z M70.4,173.9l-7-3.4
		l4.8,9.8c-0.1-0.5-0.2-1.1-0.2-1.6c-0.1-1.2-0.3-2.5-1.1-3.5c-0.6-1.4-0.1-1,0.5-0.1c0-0.3,0.1-0.4,0.2-0.3
		c0.3,0.1,0.7,1.1,0.7,1.5l0.7,5.7l4.9,10L70.4,173.9z M103.2,194l-8.7,2.5c1,0.1,2-0.2,3-0.3c0.4,0,0.6,0,0.7,0.1
		c0.3,0.2-1.2,0.5-1.7,0.7c-1.9,0.5-3.7,1.6-5.7,1.4l4.1-1.6c-0.4,0-1-0.1-1.3-0.1l-8.2,2.4l12.7-0.3c1.2-0.4,0.6-0.5-0.6-0.5
		l-1.8-0.1c2.4-0.8,5-0.9,7.6-1.4c0.5,0.1,1.6,0,1.8,0.1c0.1,0.1-0.1,0.1-0.7,0.3l-2.7,1c1.8-0.2-0.2,0.5-1,0.3
		c-0.2,0.1-0.3,0.1-0.5,0.2l9.3-0.2L103.2,194z M82.6,184.2c0.2,0.1,0.3,0.2,0.5,0.3l-3.2,5.3l-1.6-1l2.2-3.7
		c-0.5-0.5-1.4-0.6-1.9-1.2c-0.2-0.6,0.6-0.8,1-0.4c0.4,0.2,0.9,0.6,1.4,0.3C81.6,183.7,82.1,183.9,82.6,184.2L82.6,184.2z
		 M86.6,186.8c0.1,0,0.1,0.1,0.2,0.1c0.3,0.3,0.8,0.5,1.2,0.8l3.1,1.9c0,0.5-0.5,1-1,0.7c-0.5-0.2-0.9-0.6-1.4-0.8
		c-0.6-0.3-1.1-0.9-1.8-1c-0.5,0-1.1,0.7-0.3,0.8c0.5,0.1,1,0.3,1.3,0.7c0.8,0.7,1.6,1.5,1.7,2.6c0,0.5-0.2,1.1-0.7,1.4
		c-0.9,0.5-2,0.2-3-0.2c-0.3-0.1-0.7-0.2-1-0.4c-0.8-0.6-1.8-1.3-2-2.4c-0.1-0.5,0.2-1.1,0.7-0.7c0.4,0.2,1.1,0.6,1,1.2
		c0.1,0.7,0.9,1,1.5,1.2c0.5,0.2,1.1,0.3,1.4-0.2c0.4-0.5,0.2-1.1-0.3-1.5c-0.5-0.7-1.5-0.7-2.3-1.1c-0.5-0.1-1.2-0.7-0.8-1.2
		c0.4-0.5,0.9-0.8,1.3-1.3C85.7,186.9,86.2,186.5,86.6,186.8L86.6,186.8z M102.6,197.3c0,0-1.3,0.2-1.8,0.2l-2.9,0.4
		c1.4,0.1,2.7,0.1,4-0.5C102.4,197.4,102.6,197.4,102.6,197.3L102.6,197.3z M71.3,180.6c0.3,0.2,0.6,1.1,0.6,1.6l0.9,5.8
		c-0.8-0.8-1.1-1.9-1.1-3c-0.2-1.4-0.1-2.9-1.1-4c-0.7-1.3-0.2-1.2,0.4-0.1C71.1,180.6,71.2,180.6,71.3,180.6L71.3,180.6z"/>
	<path class="st2" d="M73.8,91.9l-41.7,32.7l49.5,19.7L73.8,91.9z M69.5,92.3l-28.3,7.1l-8.7,21.9L69.5,92.3z M76.7,95.1l6.9,46.6
		l8.7-21.9L76.7,95.1z M53.3,100.3l-1.2,3l-1.7,0.9l0.9-2.4c-0.6,0.3-1.1,0.6-1.7,0.9c0.5,0.2,0,0.9-0.1,1.2c-0.8,1.2-2.1,2-3.2,2.7
		c-0.4,0.2-0.8,0.5-1.2,0.7c-0.8,0.2-1.4,0.1-1.4-0.8c0.5-1.1,1.4-1.9,2.3-2.5l1.2-0.8c-0.1,0.3-0.3,0.7-0.4,1
		c-0.6,0.5-1.5,0.9-1.6,1.7c1,0.6,2.3-0.8,2.9-1.5c0.3-0.3,0.6-0.6,0.1-0.8l0.4-1L53.3,100.3z M82.7,112.2l3.2,10l-0.4,1l-2.2-6.7
		l-0.5,1.2l-0.4-1.3c0.2-0.6,0.3-1.2,0.3-1.8c-0.1-0.5-0.2-1-0.4-1.5L82.7,112.2z M64.6,115.1c1.2,0.5,2,1,2.4,1.7
		c0.4,0.7,0.5,1.4,0.2,2.2c-0.2,0.5-0.5,0.9-1,1.2c-0.4,0.2-1,0.3-1.6,0.3c0.6,0.4,1,0.9,1.1,1.5c0.2,0.5,0.1,1.1-0.1,1.7
		c-0.4,1-1,1.5-1.8,1.8c-0.8,0.2-1.9,0.1-3.1-0.4c-1.2-0.5-2.1-1.1-2.5-1.9c-0.4-0.7-0.5-1.6-0.1-2.5c0.2-0.6,0.6-1.1,1.1-1.3
		c0.5-0.3,1.1-0.4,1.8-0.3c-0.5-0.4-0.8-0.9-1-1.3c-0.2-0.5-0.1-1,0.1-1.5c0.3-0.8,0.9-1.3,1.6-1.5
		C62.4,114.5,63.4,114.6,64.6,115.1L64.6,115.1z M63.9,116.7c-0.4-0.2-0.7-0.2-1-0.1c-0.3,0.1-0.5,0.4-0.7,0.7c-0.2,0.4-0.2,0.7,0,1
		c0.1,0.3,0.4,0.5,0.8,0.7c0.4,0.2,0.7,0.2,1,0c0.3-0.1,0.5-0.4,0.7-0.8c0.2-0.4,0.2-0.7,0-1C64.6,117,64.3,116.8,63.9,116.7
		L63.9,116.7z M62.4,120.6c-0.5-0.2-0.9-0.2-1.2,0c-0.3,0.2-0.6,0.5-0.8,0.9c-0.2,0.5-0.2,0.9-0.1,1.2c0.1,0.3,0.5,0.6,0.9,0.8
		c0.5,0.2,0.9,0.2,1.2,0c0.3-0.2,0.6-0.5,0.8-0.9c0.2-0.5,0.2-0.9,0.1-1.2C63.1,121,62.8,120.8,62.4,120.6L62.4,120.6z M32.7,127.5
		l16.5,26.1l29.9-7.5L32.7,127.5z M50.8,138.4l7.6,3l-0.3,0.7c-2.3,0-3.7,0.6-5.3,2l-2.2-0.9c1.8-1.5,3-1.7,5.1-2.1l-5.2-2.1
		L50.8,138.4z"/>
	<path class="st2" d="M148.5,143.4c-2.1-0.9-4.5,0.1-5.4,2.2l-14.7,35.9c-0.9,2.1,0.1,4.5,2.2,5.4l0,0l35.9,14.7
		c2.1,0.9,4.5-0.1,5.4-2.2l0,0l14.7-35.9c0.9-2.1-0.1-4.5-2.2-5.4L148.5,143.4z M151.9,148.9c2.6,1.2,3.9,4.2,2.8,6.9
		c-1.1,2.7-4.2,4-7,2.9c-2.7-1.1-4-4.2-2.9-7c1.1-2.7,4.2-4,7-2.9C151.8,148.9,151.8,148.9,151.9,148.9z M178.3,159.8
		c2.6,1.2,3.9,4.2,2.8,6.9c-1.1,2.7-4.2,4-7,2.9c-2.7-1.1-4-4.2-2.9-7c1.1-2.7,4.2-4,7-2.9C178.3,159.8,178.3,159.8,178.3,159.8z
		 M146.3,162.1c2.7,1.1,4,4.2,2.9,7c-1.1,2.7-4.2,4-7,2.9c-2.7-1.1-4-4.2-2.9-7C140.4,162.3,143.6,161,146.3,162.1z M172.8,173
		c2.7,1.1,4,4.2,2.9,7c-1.1,2.7-4.2,4-7,2.9c-2.7-1.1-4-4.2-2.9-7C166.9,173.2,170,171.9,172.8,173z M141,175.4
		c2.6,1.2,3.9,4.2,2.8,6.9c-1.1,2.7-4.2,4-7,2.9c-2.7-1.1-4-4.2-2.9-7c1.1-2.7,4.2-4,7-2.9C140.9,175.4,140.9,175.4,141,175.4z
		 M167.5,186.3c2.6,1.2,3.9,4.2,2.8,6.9c-1.1,2.7-4.2,4-7,2.9c-2.7-1.1-4-4.2-2.9-7c1.1-2.7,4.2-4,7-2.9
		C167.4,186.3,167.4,186.3,167.5,186.3z"/>
	<path class="st2" d="M139.1,101l-7.4,17.8l19.8,21.4l1.1-48.5L140,98.6L139.1,101z M149.3,115.1l0.9,2.4l-6.7,4.2l-0.8-2
		c0.2-0.9,0.3-1.9,0.4-2.8c0.1-1.3,0.1-2.6,0.1-3.8c-0.1-1.2-0.2-2.3-0.5-3.5c-0.2-1.1-0.5-2.1-0.8-3.1l1.9-1.2
		c0.9,2.4,1.3,5.2,1.2,8.5c-0.1,2-0.2,3.5-0.4,4.4L149.3,115.1z M108.6,127.5l-7.6,11.7l48.2,3.1l-19.8-21.5l-18.4,5.9L108.6,127.5z
		 M116.3,131.4c0.8-1.1,2.2-1.8,3.6-1.8c1,0,1.9,0.1,2.8,0.5l-1.2,1.7c-0.5-0.2-0.9-0.3-1.4-0.3c-0.8,0-1.3,0.2-1.7,0.8l0,0.1
		c-0.2,0.3-0.3,0.7-0.1,1.1c0.2,0.4,0.6,0.7,1.2,0.9c0.9,0.3,1.6,0.3,2.2-0.1c0.4-0.3,0.7-0.6,1-0.9l0.2-0.2l1.8,0.6
		c-0.4,0.6-0.6,1-0.6,1.3c0,0.5,0.3,0.8,1.1,1.1c0.5,0.2,1,0.2,1.4,0.1c0.4-0.1,0.8-0.3,1-0.6l0-0.1c0.3-0.4,0.3-0.8,0.1-1.1
		c-0.2-0.3-0.7-0.6-1.3-0.8l1.2-1.6c0.6,0.2,1.2,0.5,1.7,0.9c0.4,0.3,0.7,0.7,0.9,1.2c0.1,0.3,0.2,0.7,0.1,1.1
		c-0.1,0.5-0.3,0.9-0.6,1.2l-0.1,0.2c-0.6,0.8-1.4,1.3-2.3,1.6c-1,0.3-2.2,0.3-3.2-0.1c-0.8-0.3-1.3-0.7-1.6-1.1
		c-0.2-0.2-0.3-0.5-0.2-0.9l0,0c-0.1,0.2-0.5,0.3-1.1,0.5c-1,0.2-2,0.2-3-0.2c-1.1-0.4-1.9-1-2.4-1.8c-0.5-0.8-0.3-1.7,0.4-2.8
		L116.3,131.4z M98,138.2l0.2-25.3c0.1-0.1,0.1-0.1,0.2-0.2l0,0c0.3-0.2,0.5-0.2,0.7,0.1c0.3,0.4,0.4,0.8,0.5,1.3
		c0.1,0.8,0.1,1.5,0,2.3c-0.1,0.5-0.3,1.4-0.7,2.7c-0.5,1.5-0.7,2.8-0.7,3.8c0,1,0,2,0.2,2.9l4.3-3.1l-0.4-2.4l-2.7,2
		c0-0.3,0.1-0.6,0.1-1c0.1-0.3,0.2-0.8,0.4-1.5l0.3-1.1c0.3-0.8,0.4-1.6,0.6-2.4c0.1-1,0.1-2-0.1-3c-0.2-1.3-0.6-2.3-1.2-2.8
		c-0.4-0.4-0.9-0.5-1.5-0.3l0.2-18.6l7.4,32l0.4,1.8L98,138.2z M133.3,90.2c-0.7-0.2-1.1-0.3-1.4-0.6c-0.2-0.2-0.2-0.5,0-0.8
		l0.1-0.1c0.3-0.3,0.7-0.4,1.1-0.5c0.6-0.1,1.2,0,1.8,0.1c0.7,0.1,1.1,0.3,1.3,0.6c0.2,0.2,0.2,0.5,0,0.8l-0.1,0.1
		c-0.3,0.3-0.7,0.4-1.1,0.5C134.4,90.4,133.8,90.4,133.3,90.2L133.3,90.2z M105.2,85.5l19.5,1.4l-0.1,0.1c0,0-0.1,0.1-0.2,0.2
		c-0.5,0.6-0.6,1.2-0.2,1.7c0.4,0.5,1.1,0.9,2.1,1.1c0.5,0.1,1,0.2,1.5,0.2c0.7,0,1.3-0.1,1.9-0.3c0,0.4,0.3,0.7,0.8,1
		c0.6,0.3,1.2,0.6,1.9,0.7c1.1,0.2,2.3,0.3,3.4,0.1c1-0.2,1.8-0.6,2.4-1.2c0.1-0.1,0.1-0.1,0.2-0.2c0.6-0.7,0.7-1.3,0.2-1.9
		c-0.2-0.2-0.4-0.4-0.6-0.5l13.6,1l-13.2,7.2l-1.9-0.6L105.2,85.5z M128,87.2l0.6,0c0.1,0,0.2,0,0.4,0.1c0.5,0.1,0.8,0.3,1,0.5
		c0.2,0.2,0.2,0.4,0,0.7l-0.1,0.1c-0.3,0.2-0.6,0.4-0.9,0.4c-0.5,0.1-0.9,0.1-1.4-0.1c-0.5-0.1-0.9-0.3-1.1-0.5
		c-0.2-0.2-0.2-0.4,0.1-0.7l0.1-0.1c0.2-0.2,0.6-0.4,0.9-0.4C127.7,87.2,127.8,87.1,128,87.2L128,87.2z M100.8,87.5l8.2,36.8
		l19.8-6.3l7.9-19.2L100.8,87.5z M123.1,112c-1.4,1.3-2.8,1.7-4.2,1.2c-1.4-0.5-3-1.6-4.6-3.3c-1.6-1.8-2.6-3.4-3-4.9
		c-0.3-1.5,0.2-2.8,1.5-4.1c1.4-1.3,2.8-1.7,4.2-1.2c1.4,0.5,3,1.6,4.6,3.3c1.6,1.8,2.6,3.4,2.9,4.9
		C125,109.4,124.5,110.8,123.1,112L123.1,112z M116.6,102.5c0.8,0.4,1.7,1.3,2.9,2.6c1.1,1.2,1.9,2.3,2.3,3.1
		c0.4,0.8,0.3,1.5-0.3,2.1c-0.6,0.6-1.3,0.6-2.1,0.2c-0.8-0.5-1.8-1.3-2.9-2.6c-1.2-1.3-2-2.3-2.3-3.2s-0.2-1.5,0.4-2.1
		C115.2,102.1,115.9,102,116.6,102.5L116.6,102.5z"/>
	<path class="st2" d="M299.9,199.7l12.1-27.3l-20.7,14.4L299.9,199.7z M298,200.9l-8.6-13l-21.3,13.5L298,200.9z M289.1,197.4
		c-0.5,0.4-1.3,0.6-1.9,0.6c-1,0.1-1.6-0.2-2.1,0.7c-1.3,0.7-3.1,1.1-4.5,0.3c-0.9-0.2-1.2-1.4-0.4-1.9c1.2-0.8,2.8-0.8,2.4-0.2
		c-0.4,0.6-1.8,1.1-0.8,1.5c0.8,0.2,1.9,0.1,2.4-0.6c-0.3-0.9,0.8-1.2,1.5-0.9c0.7,0.5,1.7,0.3,2.4-0.3c0.5-0.8-0.9-0.9-1.4-0.8
		c-1.1,0.4-0.6-0.9,0.1-0.9c0.7-0.1,2.6,0,3.1,1.1C289.8,196.6,289.5,197.1,289.1,197.4L289.1,197.4z M300.4,189.8
		c-0.7,0.4-1.7,0.6-2-0.4c0-1.2,0.1-2.3,1-3.2c0.5-0.9,1.4-1.7,2.4-1.9c0.6,0,2.3,0,2-0.8c-0.4-0.8-1.6-1.6-0.5-2.4l0.4-0.6l1.9,2.9
		c-0.9,1.2-2.2,2.2-3.7,2.2c-1.3,0.1-2.4,1.4-2.4,2.6c0.4,0.9,1.3-0.1,1.7-0.6C302.3,188.5,300.9,189.2,300.4,189.8L300.4,189.8z
		 M290.7,184.3l21.9-15.3l-23.8-17.4L290.7,184.3z M287.4,186.5L258,172.1l6.8,28.7L287.4,186.5z M288.5,184.5l-1.9-33.2l-28,18.6
		L288.5,184.5z M272.4,192c-0.5,0.3-1,0.5-1.5,0.5c-2.3,0.1-4.6-1.4-6-3.4c-0.5-0.7-0.9-1.7-0.6-2.5c0.2-0.5,0.5-0.9,0.8-1.3
		c2.1-1.2,4.4,0.4,6.1,1.5c1.2,0.9,2.6,2.4,2.3,3.9C273.2,191.3,272.9,191.7,272.4,192L272.4,192z M299,173.1
		c-0.8,0.5-1.9,0.4-2.7-0.2c-0.6-0.3-0.8-1.4-0.4-1.8c0.5-0.5,1.2,0.8,2,0.6c1,0,1-1.4,1-2.2c0-0.1-0.1-0.3-0.1-0.4
		c-0.9,1.3-3,0.8-3.8-0.4c-0.9-1.4-1-3.6,0.1-4.9l0.7-0.4c1.6-0.9,3.4,0.4,3.8,2.1c0.7,2.2,1.4,4.9,0,7
		C299.5,172.7,299.2,172.9,299,173.1z M271.4,190.9c0.9-0.5-0.3-1.5-0.7-2c-1-1.1-2.3-1.8-3.7-2.2c-0.3,0-0.6,0-0.9,0.1
		c-0.7,0.7,0.5,1.9,0.9,2.3C268.3,190,269.6,191.3,271.4,190.9L271.4,190.9z M310.2,164.3l-13.7-20.7l-6.9,5.6L310.2,164.3z
		 M261.4,196.7l-5.9-24.9l-7.8,4.2L261.4,196.7z M275.5,187.2l-8.4-5.3l0.8-1.3l5.8,3.6c0.5-0.8,0.8-2.1,1.8-1
		c0.5,0.4-0.6,1.3,0,2.1C276.1,186.1,276.2,186.9,275.5,187.2L275.5,187.2z M298.1,168c0.3-0.2,0.4-0.5,0.5-0.9
		c-0.1-0.8-0.3-1.6-0.9-2.1c-0.9-0.9-2.1,0.3-1.8,1.3c0.1,0.8,0.5,1.7,1.3,1.8c0.3,0.1,0.6,0,0.8-0.1
		C298,168.1,298.1,168.1,298.1,168L298.1,168z M257.5,189.2c-0.5,0.3-1.2-0.4-1.4-0.9c-1.5-2.2-3.2-4.6-3.2-7.4
		c0-0.2,0.1-0.4,0.2-0.6c1,0,1.3,1.1,1.1,1.9c-0.7-0.8-0.4,0.8-0.4,1.2c0.1,0.5,1,2.4,0.9,1.1c-0.4-0.4-0.2-2.1,0.5-1.7
		c1.7,1.3,2.4,3.6,2.6,5.7C257.8,188.9,257.7,189.1,257.5,189.2L257.5,189.2z M304.5,157.9c-0.1,0-0.2,0-0.6-0.2l-4.8-7.3
		c1.4,0.3,1.8,1.8,2.6,2.8c0.7,0.8,1.1,2.1,2,2.7c0.7-0.2,2,1.6,1.4,1.3C304.2,156.8,304.7,157.7,304.5,157.9L304.5,157.9z
		 M284.3,170.5c-0.5,0.3-1.2,0.6-1.8,0.6c-1.3,0.1-2.8-0.6-3.2-2c-0.5-1.3,0-2.8,0.7-3.9c0.3-0.6,0.8-1.3,0.6-2
		c-0.1-0.5-3.2,1.8-3.7,2.2c-0.4-0.4-1-1.2-0.5-1.7c1.8-1,3.6-2.3,5.4-3.5c0.8,1.4,0.8,3.1,0.1,4.6c-0.4,1.1-1.1,2.3-0.7,3.6
		c0.1,0.7,0.8,1.1,1.5,1c0.7,0,1.5-0.6,1.4-1.4c-0.1-0.6-0.2-1.4,0.3-1.8c0.3-0.3,1-0.8,1.3,0c0.3,0.8,0.5,1.7,0.2,2.5
		C285.6,169.4,285,170.1,284.3,170.5L284.3,170.5z M277.3,175.1c-0.3,0.2-0.6,0.3-1,0.4c-1,0.3-2.1,0-2.9-0.6
		c-1.9-1.3-3.3-3.5-3.1-5.8c0.2-0.9,0.5-1.9,1.3-2.4c1.5-1,3.6-0.4,4.8,0.8c1.4,1.3,2.5,3.3,2.3,5.3c0,0.9-0.5,1.8-1.3,2.3
		C277.4,175,277.3,175.1,277.3,175.1z M257,187.6c0.1-0.1,0.2-0.3,0-0.7c-0.3-0.8-0.7-1.9-1.4-2.4c-0.5,0.6,0.1,1.6,0.3,2.3
		C256,187.3,256.7,187.7,257,187.6L257,187.6z M276.3,173.8c0.4-0.2,0.6-0.9,0.5-1.3c-0.1-0.7-0.5-1.2-0.7-1.8
		c-0.6-1.1-1.5-2.3-2.8-2.8l-0.4,0c-0.7,0.2-1,1-0.8,1.7c0.3,0.9,0.7,1.7,1.2,2.5c0.6,0.8,1.4,1.7,2.4,1.9
		C276,173.9,276.2,173.8,276.3,173.8L276.3,173.8z M258.1,185l-4.8-7.3l0-1.1l3.3,5c0-1.3,0.4-1.8,0.8-0.4
		C257.3,182.5,258.2,183.6,258.1,185L258.1,185z M301,156.3C300.9,156.3,300.9,156.3,301,156.3c-0.5,0.4-1.5-0.3-2-0.6
		c-0.4-0.4-2-1.7-1.4-1.6c0.1,0,0.1,0.1,0.2,0.1l-0.5-0.2c0.8,0.1,1.6,0.7,1.2,0.6c0.4,0.2,0.8,0.5,1.2,0.8
		c-0.1-0.1-0.1-0.3,0.1-0.5c-0.1-0.5-0.4-0.9-0.8-1.3c0.1,0.2,0,0.4-0.3,0.4c-1.9-0.9-3.8-2.5-4.3-4.6l0.2-0.3
		c1.7-0.1,2.9,1.4,4,2.5c1.2,1.3,2.1,2.9,2.6,4.6C301.1,156.2,301,156.3,301,156.3C300.9,156.3,300.9,156.3,301,156.3L301,156.3z
		 M300.9,156.3c0,0-0.1-0.1-0.1-0.1C300.8,156.2,300.9,156.3,300.9,156.3L300.9,156.3z M298.2,152.8c0.1-0.9-0.7-1.7-1.4-2.2
		c-0.6-0.6-1.6-0.7-0.8,0.3c0.5,0.7,0.9,1.4,1.7,1.7C297.8,152.5,298,152.6,298.2,152.8L298.2,152.8z M284.8,149.8l-23.2-5.8
		l-3.7,23.7L284.8,149.8z M287.3,148l6-4.9l-10.9,0.2c0.5,0.1,1,0.3,1.5,0.5c1.2,0.4,2.3,0.8,3.6,0.5c1.6,0.1,0.9,0.3-0.1,0.5
		c0.3,0.1,0.3,0.3,0.2,0.3c-0.2,0.2-1.3,0.2-1.7,0l-5.5-1.8l-11.1,0.2L287.3,148z M255.3,169.3l1.4-8.9c-0.5,0.9-0.7,1.9-1,2.8
		c-0.2,0.4-0.3,0.5-0.4,0.6c-0.2,0.2,0.1-1.3,0.1-1.8c0.3-1.9,0.1-4,1.1-5.7l-0.3,4.4c0.2-0.3,0.5-0.9,0.7-1.1l1.3-8.4l-5.1,11.6
		c-0.1,1.2,0.2,0.8,0.7-0.3l0.9-1.6c-0.3,2.6-1.3,4.9-2,7.4c-0.3,0.4-0.7,1.4-0.9,1.6c-0.1,0.1-0.1-0.1,0-0.7l0.2-2.9
		c-0.6,1.7-0.4-0.4,0.1-1c0-0.2,0-0.3,0-0.5l-3.7,8.5L255.3,169.3z M272.8,154.8c-0.2,0.1-0.3,0.2-0.5,0.3l-3.4-5.2l1.6-1.1l2.4,3.6
		c0.7-0.2,1.1-1,1.9-1.2c0.7,0.1,0.4,0.9-0.1,1.1c-0.4,0.3-0.9,0.6-0.9,1.1C273.8,154,273.3,154.4,272.8,154.8L272.8,154.8z
		 M268.8,157.3c-0.1,0-0.1,0.1-0.2,0.1c-0.4,0.2-0.8,0.5-1.2,0.7l-3,2c-0.4-0.2-0.7-0.9-0.2-1.2c0.4-0.4,1-0.6,1.4-1
		c0.5-0.4,1.3-0.6,1.7-1.2c0.2-0.4-0.2-1.3-0.6-0.6c-0.3,0.4-0.7,0.8-1.2,0.9c-0.9,0.4-2,0.8-3,0.4c-0.5-0.2-0.9-0.7-0.9-1.2
		c-0.1-1.1,0.7-1.9,1.4-2.6c0.2-0.2,0.4-0.5,0.7-0.7c0.9-0.5,1.9-1.1,3-0.8c0.5,0.1,0.9,0.6,0.3,0.9c-0.4,0.3-1,0.7-1.5,0.4
		c-0.7-0.2-1.3,0.3-1.7,0.8c-0.4,0.3-0.7,0.9-0.4,1.4c0.3,0.5,0.9,0.6,1.4,0.4c0.9-0.2,1.3-1.1,1.9-1.6c0.3-0.4,1.1-0.8,1.4-0.2
		c0.2,0.6,0.3,1.2,0.7,1.7C269.1,156.4,269.2,157,268.8,157.3L268.8,157.3z M252.5,167.3c0,0,0.4-1.2,0.5-1.8l0.8-2.8
		c-0.7,1.2-1.2,2.5-1.3,3.8C252.5,167.1,252.5,167.3,252.5,167.3L252.5,167.3z M280.9,146c-0.3,0.2-1.3,0-1.7-0.1l-5.6-1.6
		c1.1-0.4,2.2-0.2,3.2,0.2c1.3,0.4,2.7,1.1,4.1,0.7c1.5-0.1,1.1,0.4-0.1,0.4C281,145.8,281,145.9,280.9,146L280.9,146z"/>
</g>
<g id="Layer_2">
</g>
</svg>
