<?xml version="1.0" encoding="utf-8"?>
<!-- Generator: Adobe Illustrator 22.0.1, SVG Export Plug-In . SVG Version: 6.00 Build 0)  -->
<svg version="1.1" id="Layer_1" xmlns="http://www.w3.org/2000/svg" xmlns:xlink="http://www.w3.org/1999/xlink" x="0px" y="0px"
	 viewBox="0 0 512 512" style="enable-background:new 0 0 512 512;" xml:space="preserve">
<style type="text/css">
	.st0{enable-background:new    ;}
	.st1{fill:#FCFAFA;}
</style>
<path d="M0,0h512v512H0V0z"/>
<g class="st0">
	<path class="st1" d="M33.2,275.6v-33.4H100v-66.8h33.4v66.8h66.8v33.4h-66.8v66.8H100v-66.8H33.2z"/>
	<path class="st1" d="M281.4,409v-21.3l33-1.6c16.5-0.9,24.8-7.5,24.8-19.7l0.8-23.6V142.4c0-16-3-24-9-24c-6.5,0-18.2,1.6-35.2,4.9
		l-14.5,2.9V99l125.2-31.4v275.2l0.8,23.6c0,12.2,8.3,18.8,25,19.5l32.8,1.8V409H281.4z"/>
</g>
</svg>
