<?xml version="1.0" encoding="utf-8"?>
<!-- Generator: Adobe Illustrator 22.0.1, SVG Export Plug-In . SVG Version: 6.00 Build 0)  -->
<svg version="1.1" id="Layer_1" xmlns="http://www.w3.org/2000/svg" xmlns:xlink="http://www.w3.org/1999/xlink" x="0px" y="0px"
	 viewBox="0 0 512 512" style="enable-background:new 0 0 512 512;" xml:space="preserve">
<style type="text/css">
	.st0{fill:#330000;}
	.st1{fill:none;}
	.st2{fill:#FFFFFF;}
</style>
<path class="st0" d="M0,0h512v512H0V0z"/>
<rect x="329" y="301.5" class="st1" width="299.5" height="4.5"/>
<g>
	<path class="st2" d="M76,306v-8c7.6,0,11.4-2.3,11.4-7l0.4-10V206l-0.4-10c0-4.6-3.8-7-11.4-7v-8h36.8l4.9-0.1l6.6-0.3l7-0.1
		c22.7,0,34.1,10.1,34.1,30.4c0,16.4-7,27.7-20.9,33.8l17,38c4.1,9.1,8.4,14.3,13,15.6v7.7h-28.4l-25.4-57h-8v32l0.4,10
		c0,2.6,0.4,4.4,1.2,5.2c0.8,0.8,3.6,1.4,8.4,1.9v8H76z M112.7,189V241h4c15.8,0,23.6-9.5,23.6-28.5c0-15.7-7-23.6-20.9-23.6H112.7z
		"/>
	<path class="st2" d="M224.6,309c-13.2,0-23.7-5.9-31.5-17.7c-7.8-11.8-11.6-27.8-11.6-47.8c0-20.2,3.9-36.2,11.7-47.9
		c7.8-11.7,18.5-17.6,32-17.6c13.5,0,24.2,5.8,32,17.5c7.8,11.7,11.8,27.6,11.8,47.6c0,20.7-3.9,36.8-11.8,48.4
		C249.4,303.2,238.5,309,224.6,309z M225.5,300.5c11,0,16.5-19.4,16.5-58.2c0-37.3-5.6-55.9-16.8-55.9c-11.1,0-16.7,19-16.7,56.9
		C208.5,281.5,214.2,300.5,225.5,300.5z"/>
	<path class="st2" d="M364.3,306h-85.1v-8c7.6,0,11.4-2.3,11.4-7l0.4-10V206l-0.4-10c0-4.6-3.8-7-11.4-7v-8h48.6v8
		c-7.6,0-11.4,2.3-11.4,7l-0.4,10V281c0,6.1,0.5,10.1,1.4,12.1c0.9,1.9,5.3,2.9,13.1,2.9H341l5.3-0.2c5.2,0,7.9-2.3,7.9-6.9l0.1-4.8
		l0.1-3h10V306z"/>
	<path class="st2" d="M457.4,306h-85.1v-8c7.6,0,11.4-2.3,11.4-7l0.4-10V206l-0.4-10c0-4.6-3.8-7-11.4-7v-8h48.6v8
		c-7.6,0-11.4,2.3-11.4,7l-0.4,10V281c0,6.1,0.5,10.1,1.4,12.1c0.9,1.9,5.3,2.9,13.1,2.9h10.6l5.3-0.2c5.2,0,7.9-2.3,7.9-6.9
		l0.1-4.8l0.1-3h10V306z"/>
</g>
</svg>
